<?xml version="1.0" encoding="UTF-8" standalone="no"?>
<!DOCTYPE svg PUBLIC "-//W3C//DTD SVG 1.1//EN" "http://www.w3.org/Graphics/SVG/1.1/DTD/svg11.dtd">
<svg width="48pt" height="48pt" viewBox="0 0 48 48" overflow="visible" version="1.1" xmlns="http://www.w3.org/2000/svg">
  <path d="M24.7088,1.721097 C11.19504,1.214234 11.19504,15.3378 6.284109,14.10189 C9.07664,18.36229 11.94221,19.80255 14.88083,18.42266 C14.17668,20.53423 13.85379,22.76227 13.83361,24.80656 C13.82006,26.00142 13.90486,27.25695 14.11104,28.52147 C11.44125,27.71272 8.83227,29.25213 6.284109,33.13971 C11.19504,31.90379 11.19504,46.02736 24.7088,45.5205 C38.22255,46.02736 38.22255,31.90379 43.13348,33.13971 C40.68789,29.40861 38.18627,27.84045 35.62864,28.43522 C35.82389,27.28533 35.91895,26.14488 35.93096,25.05291 C35.95649,23.00129 35.68119,20.7577 35.01919,18.6241 C37.78921,19.63623 40.49397,18.12883 43.13348,14.10189 C38.22255,15.3378 38.22255,1.214234 24.7088,1.721097 z" stroke="#000000" stroke-width="0.24" fill-opacity="0" />
</svg>