<?xml version="1.0" encoding="UTF-8" standalone="no"?>
<!DOCTYPE svg PUBLIC "-//W3C//DTD SVG 1.1//EN" "http://www.w3.org/Graphics/SVG/1.1/DTD/svg11.dtd">
<svg width="283.44pt" height="283.44pt" viewBox="0 0 283.44 283.44" overflow="visible" version="1.1" xmlns="http://www.w3.org/2000/svg">
  <path d="M160.1753,267.6935 C189.1627,270.1836 206.4695,249.7803 212.0958,206.4837 L213.403,206.5313 C237.7638,208.6239 250.156,187.2588 250.5796,142.4358 C228.1202,139.8952 211.2101,141.1015 199.8494,146.0546 C194.1832,134.19 185.4962,121.5458 173.7885,108.1219 L175.0251,106.8228 C199.3076,83.70866 188.6275,51.5715 142.9847,10.41132 C97.34199,51.5715 86.66187,83.70866 110.9444,106.8228 L112.2391,108.0553 C100.502,121.5039 91.79559,134.1704 86.12002,146.0546 C74.75935,141.1015 57.84928,139.8952 35.38982,142.4358 C35.81349,187.2588 48.20569,208.6239 72.56642,206.5313 L73.87366,206.4837 C79.49995,249.7803 96.80679,270.1836 125.7942,267.6935 L142.9847,267.315 z" stroke="#000000" stroke-width="0.24" fill-opacity="0" />
</svg>