<?xml version="1.0" encoding="UTF-8" standalone="no"?>
<!DOCTYPE svg PUBLIC "-//W3C//DTD SVG 1.1//EN" "http://www.w3.org/Graphics/SVG/1.1/DTD/svg11.dtd">
<svg width="144pt" height="144pt" viewBox="0 0 144 144" overflow="visible" version="1.1" xmlns="http://www.w3.org/2000/svg">
  <path d="M38.12908,60.68596 L38.64987,61.20891 C40.2474,62.76993 41.73539,63.81973 43.2325,64.63676 C44.72962,65.45378 46.23586,66.03802 47.26285,66.33927 C48.28983,66.64052 48.83756,66.65878 49.13424,66.49446 C49.43093,66.33014 49.47657,65.98325 49.09316,65.56789 L46.95247,63.94297 L44.17733,61.43713 C43.42421,60.62467 42.99516,59.9674 42.21008,58.68024 L41.86948,58.11831 L41.19584,58.52626 z" stroke="#000000" stroke-width="0.24" fill-opacity="0" />
  <path d="M35.68883,27.29414 C33.58141,27.68836 32.10923,31.07876 33.04965,33.37213 C33.57787,35.79388 36.71493,37.74862 38.67346,36.87639 C40.78088,36.48218 42.25306,33.09177 41.31264,30.79841 C40.78442,28.37666 37.64736,26.42191 35.68883,27.29414 z" stroke="#000000" stroke-width="0.24" fill-opacity="0" />
  <path d="M58.04452,17.42718 C57.06774,13.48391 53.89104,10.4872 50.87634,9.379061 C47.5107,8.141928 44.34697,9.258637 42.58976,10.90894 C41.31919,12.1022 40.78397,13.57444 40.6867,14.88582 C36.14383,11.41213 32.54667,11.56894 30.00409,12.85885 C21.86889,16.98601 24.5299,32.71312 23.99442,45.63142 C23.72668,52.09058 22.65982,57.84752 23.56722,62.75002 C23.81381,64.08228 24.20619,65.35144 25.08643,67.28201 C22.30228,73.57337 22.64534,78.1541 23.41706,81.79662 C24.39885,86.43066 26.07443,89.5462 28.53545,91.11706 C30.06985,92.09646 31.90956,92.4754 33.79444,92.19201 C24.90654,114.8965 42.23898,132.0021 62.39336,118.2247 C66.52827,119.5522 72.91599,119.304 77.82886,111.6461 L79.83628,115.1775 C82.79473,119.9032 86.38153,123.8042 91.21193,126.9066 C96.04233,130.0091 102.1163,132.313 107.562,133.1508 C113.0076,133.9886 117.8249,133.3603 121.307,131.4229 C124.7891,129.4855 126.9359,126.239 127.0668,122.1417 C127.1977,118.0444 125.3127,113.0962 124.1215,110.2032 C122.9302,107.3102 122.4328,106.4724 122.1448,102.7939 C121.8717,99.30579 121.787,93.26331 117.036,88.39143 C119.9523,87.34612 122.2189,85.95318 124.0406,84.19145 C126.8258,81.49801 128.5712,77.94257 129.4354,74.13924 C130.2997,70.33591 130.2827,66.28469 130.1126,63.20861 C129.9426,60.13253 129.6193,58.03159 130.6262,54.71497 C131.6331,51.39835 133.97,46.86605 134.7068,42.95409 C135.4435,39.04213 134.5802,35.7505 132.814,33.2971 C129.9988,29.3865 124.8899,27.60555 113.6371,30.40151 C105.9714,33.29923 98.6161,38.6506 92.88309,44.12567 C92.70244,34.04616 89.71452,27.39275 85.44767,23.09876 C86.0281,22.66448 86.54042,22.02913 86.86554,21.1227 C87.398,19.63816 87.42831,17.4265 85.98127,15.49846 C84.53423,13.57042 81.60983,11.926 78.08152,12.56558 C75.83116,12.9735 73.33514,14.31054 71.49193,16.38839 L69.22302,16.11149 C67.4164,15.95161 65.65202,15.93571 63.96297,16.08199 L59.80267,16.79237 z" stroke="#000000" stroke-width="0.24" fill-opacity="0" />
  <path d="M79.09832,97.27935 C77.83813,96.4081 77.93147,97.93279 78.9194,100.7332 C79.90733,103.5337 81.78985,107.6098 85.08813,111.2193 C88.38643,114.8287 93.10049,117.9715 97.3167,119.9084 C101.5329,121.8454 105.2513,122.5766 107.8106,122.3899 C110.3698,122.2032 111.7701,121.0986 112.5402,119.5817 C113.3103,118.0648 113.4503,116.1356 112.159,114.3931 C110.8677,112.6506 108.1451,111.0948 104.9168,110.1691 C101.6885,109.2434 97.95457,108.9478 94.64851,108.1388 C91.34244,107.3298 88.46422,106.0074 85.71824,103.7126 C82.97225,101.4178 80.35851,98.1506 79.09832,97.27935 z" stroke="#000000" stroke-width="0.24" fill-opacity="0" />
  <path d="M50.18641,38.11933 C50.29874,40.00105 50.02376,41.30898 49.38861,42.44705 C48.75346,43.58511 47.75814,44.5533 46.48543,42.89695 C45.81411,42.02328 45.06561,40.4194 44.96678,38.93323 C44.7794,36.11566 46.92707,33.72115 48.25074,33.75164 C49.57441,33.78212 50.07407,36.23762 50.18641,38.11933 z" stroke="#000000" stroke-width="0.24" fill-opacity="0" />
  <path d="M67.41051,47.82185 C65.28316,47.96888 63.66146,49.19424 63.59845,50.35052 C63.10835,51.90228 65.846,54.12285 68.50624,54.33134 C71.12132,54.86207 74.36388,53.47948 74.31917,51.85278 C74.65742,50.56626 72.91984,48.6837 70.57962,48.11635 C69.5405,48.33472 68.39161,48.22796 67.41051,47.82185 z" stroke="#000000" stroke-width="0.24" fill-opacity="0" />
  <path d="M37.75827,81.25145 C35.69199,79.86678 34.18541,78.05897 32.95451,76.11644 C31.80675,74.3051 30.8987,72.37662 30.24734,70.35979 C29.78115,71.50595 29.46051,72.66333 29.25134,73.80444 L30.85544,75.70573 C32.79198,77.92231 34.91765,80.12575 37.83896,81.6846 z" stroke="#000000" stroke-width="0.24" fill-opacity="0" />
  <path d="M68.23703,33.39557 C68.58826,33.59521 68.90621,33.87619 68.93948,34.17566 C68.97276,34.47513 68.72135,34.79309 68.4071,34.87442 C68.09284,34.95576 67.71573,34.80048 67.40517,34.54538 C67.09461,34.29028 66.8506,33.93535 66.81363,33.65437 C66.77666,33.37338 66.94672,33.16634 67.22401,33.12197 z" stroke="#000000" stroke-width="0.24" fill-opacity="0" />
  <path d="M69.14789,20.61059 C69.60901,18.98727 70.44521,17.56838 71.49193,16.38839 L69.22302,16.11149 C67.4164,15.95161 65.65202,15.93571 63.96297,16.08199 L59.80267,16.79237 L58.04452,17.42718 L58.29247,18.84124 C58.29247,20.18408 58.15633,21.1135 57.94662,21.76382 C61.52223,21.29095 65.43079,22.16129 69.04491,23.8759 C68.88822,23.18433 68.87705,22.16115 69.14789,20.61059 z" stroke="#000000" stroke-width="0.24" fill-opacity="0" />
  <path d="M49.27177,74.799 C42.96244,75.23023 39.58144,73.20164 37.77824,72.20988 C35.97503,71.21811 35.74963,71.26319 35.48478,71.39843 C35.21994,71.53367 34.91565,71.75907 34.86493,72.23241 C34.81421,72.70576 35.01707,73.42704 35.65947,74.31174 C36.30186,75.19644 37.38379,76.24456 39.69134,76.93767 C41.99885,77.63077 45.53194,77.96886 48.51274,76.83296 z" stroke="#000000" stroke-width="0.24" fill-opacity="0" />
  <path d="M49.58889,90.68893 C48.74101,93.3663 47.85001,95.16193 46.91587,96.07584 L46.42801,96.10867 C42.75832,96.39751 41.49636,97.44466 40.79547,98.54912 C40.31042,99.31342 40.09408,100.1052 40.10821,101.0118 L40.26064,102.2981 C40.49842,103.4507 41.00554,104.7973 41.86034,106.1253 C39.43594,107.6858 38.10491,104.983 38.10073,102.2059 C38.09655,99.42876 39.4192,96.57732 41.63938,94.36573 C43.85955,92.15414 46.97725,90.58242 48.63081,86.64347 L49.42509,87.28816 C49.2014,88.61511 49.30767,89.71717 49.58889,90.68893 z" stroke="#000000" stroke-width="0.24" fill-opacity="0" />
  <path d="M75.37872,67.95018 C76.13642,68.92395 76.71935,70.11195 77.12174,71.50682 L78.68861,65.62183 C77.5747,66.34264 76.47374,66.912 75.39025,67.35342 z" stroke="#000000" stroke-width="0.24" fill-opacity="0" />
  <path d="M37.83896,81.6846 C37.70232,81.24083 37.73918,80.74303 37.85725,80.39803 C38.068,79.78225 38.53747,79.65336 39.08596,79.77623 C39.63446,79.8991 40.26199,80.27374 41.06609,80.19077 C41.8702,80.10781 42.85088,79.56725 43.44463,79.96899 C44.03836,80.37072 44.24516,81.71477 43.06591,82.52969 L42.92328,83.46631 C44.2955,83.73247 45.80577,83.87795 47.48105,83.8747 L47.45655,82.16318 C47.5939,80.23272 47.60575,79.89566 47.832,79.03218 C48.57441,76.19869 51.62532,67.69668 54.77358,67.39053 L55.02111,67.40916 L54.88334,66.40458 C54.14298,65.80064 53.86733,65.16229 54.05638,64.48953 C52.33739,63.55595 50.91944,62.52217 49.68089,61.31183 C48.15609,59.82176 46.90318,58.06408 46.00267,56.38188 C44.30161,56.77355 42.75605,57.55265 41.19584,58.52626 C37.05371,61.11104 32.80835,65.06673 30.72494,69.29578 L30.24734,70.35979 C30.8987,72.37662 31.80675,74.3051 32.95451,76.11644 C34.18541,78.05897 35.69199,79.86678 37.75827,81.25145" stroke="#000000" stroke-width="0.24" fill-opacity="0" />
  <path d="M60.66673,73.64758 C61.25508,73.58793 61.92204,74.2549 61.86239,74.84324 C61.92204,75.43159 61.25508,76.09856 60.66673,76.03891 C60.07838,76.09856 59.41142,75.43159 59.47107,74.84324 C59.41142,74.2549 60.07838,73.58793 60.66673,73.64758 z" stroke="#000000" stroke-width="0.24" fill-opacity="0" />
  <path d="M114.3004,69.70624 C116.4135,69.66009 118.6013,72.22504 118.2224,74.30443 C118.2685,76.41754 115.7036,78.60529 113.6242,78.22641 C111.5111,78.27256 109.3233,75.7076 109.7022,73.62822 C109.6561,71.51511 112.221,69.32735 114.3004,69.70624 z" stroke="#000000" stroke-width="0.24" fill-opacity="0" />
  <path d="M55.12206,80.17845 C56.68389,83.22421 55.79031,84.91109 54.7533,86.12504 C53.71629,87.33898 52.53585,88.08001 50.8976,87.81658 C49.25935,87.55315 47.16328,86.28527 47.45655,82.16318 C47.5939,80.23272 47.60575,79.89566 47.832,79.03218 C48.57441,76.19869 51.62532,67.69668 54.77358,67.39053 L55.02111,67.40916 C55.17585,68.04 55.45558,68.57516 55.86032,69.01463 C55.63027,69.96331 54.97697,71.22402 54.18928,72.84043 C53.57981,74.09109 52.88989,75.55469 54.43308,76.97697 C55.20468,77.68813 56.53455,78.38895 56.92954,79.02612 C57.32453,79.66328 56.78462,80.23681 55.12206,80.17845 z" stroke="#000000" stroke-width="0.24" fill-opacity="0" />
  <path d="M117.036,88.39143 C121.787,93.26331 121.8717,99.30579 122.1448,102.7939 C122.4328,106.4724 122.9302,107.3102 124.1215,110.2032 C125.3127,113.0962 127.1977,118.0444 127.0668,122.1417 C126.9359,126.239 124.7891,129.4855 121.307,131.4229 C117.8249,133.3603 113.0076,133.9886 107.562,133.1508 C102.1163,132.313 96.04233,130.0091 91.21193,126.9066 C86.38153,123.8042 82.79473,119.9032 79.83628,115.1775 C76.87782,110.4519 74.54771,104.9015 74.05028,99.86819 C73.55283,94.8349 74.88807,90.31867 79.21565,87.28587 C75.57037,89.84051 74.44566,93.64468 74.86467,97.88441 C75.28368,102.1241 77.24641,106.7994 79.73843,110.78 C82.23044,114.7606 85.25173,118.0466 89.32055,120.6599 C93.38937,123.2732 98.50571,125.2139 103.0928,125.9196 C107.6798,126.6253 111.7376,126.096 114.6707,124.464 C117.6038,122.8321 119.4121,120.0975 119.5224,116.6462 C119.6327,113.1949 118.0448,109.0268 117.0414,106.5899 C116.038,104.153 115.619,103.4473 115.3764,100.3489 C115.1431,97.36837 115.073,92.17386 111.0862,89.89444 L111.8333,89.76134 C113.7695,89.39985 115.4936,88.94425 117.036,88.39143 z" stroke="#000000" stroke-width="0.24" fill-opacity="0" />
  <path d="M46.78739,15.64314 L47.17335,16.13535" stroke="#000000" stroke-width="0.24" fill-opacity="0" />
  <path d="M49.38523,24.87018 C48.38235,22.74694 47.18795,20.96808 45.80201,19.53358 C46.4347,19.24711 46.88888,18.70817 47.15085,18.01458 C47.37593,17.41865 47.45912,16.70856 47.17335,16.13535 C49.96719,16.02257 53.0011,17.24445 54.39017,19.49529 C52.42146,21.01673 50.84307,23.07356 49.79824,25.74458 z" stroke="#000000" stroke-width="0.24" fill-opacity="0" />
  <path d="M64.82672,45.64771 C63.16311,43.50254 64.13672,39.28354 66.57212,38.0843 C68.71729,36.42069 72.93629,37.3943 74.13552,39.8297 C75.79913,41.97486 74.82552,46.19387 72.39012,47.3931 C70.24496,49.05672 66.02596,48.0831 64.82672,45.64771 z" stroke="#000000" stroke-width="0.24" fill-opacity="0" />
  <path d="M103.8978,39.65719 C105.2163,39.52351 106.7111,41.01828 106.5774,42.33686 C106.7111,43.65544 105.2163,45.15021 103.8978,45.01653 C102.5792,45.15021 101.0844,43.65544 101.2181,42.33686 C101.0844,41.01828 102.5792,39.52351 103.8978,39.65719 z" stroke="#000000" stroke-width="0.24" fill-opacity="0" />
  <path d="M60.62153,102.7757 C61.76245,101.7759 63.20271,100.8931 64.95377,100.2193 C61.0309,100.0512 58.62707,99.42238 56.91015,98.62696 L57.76763,99.33567 C58.42742,99.9394 59.03984,100.6473 60.62153,102.7757 z" stroke="#000000" stroke-width="0.24" fill-opacity="0" />
  <path d="M64.95377,100.2193 L66.98668,99.57178 C67.32489,98.31918 67.8242,96.97182 68.47884,95.60302 C69.94321,92.54115 72.18486,89.37193 76.1168,90.36176 C76.90517,89.22209 77.92794,88.18831 79.21565,87.28587 C78.4503,86.72314 77.89736,86.03309 77.45311,85.06915 C77.01505,84.11862 76.68266,82.90178 76.49487,81.45753 C75.0895,84.75528 73.57538,86.60701 71.95248,87.01273 C68.23337,92.1857 64.7002,91.76307 62.71477,90.89013 C60.72934,90.0172 60.29165,88.69395 60.26583,87.09757 C60.24002,85.50121 60.62607,83.63171 63.77042,82.2793 C62.45182,81.265 62.4011,80.47897 63.45767,80.36486 C64.51424,80.25076 66.67809,80.80859 67.95161,80.99735 C69.22513,81.18611 69.60831,81.00579 69.72665,80.22816 C69.84499,79.45052 69.69847,78.07557 69.69284,76.69498 C69.6872,75.31441 69.82244,73.92818 70.22816,72.84062 L70.69029,71.91571 L69.86343,71.81297 C68.09529,73.96583 65.91553,74.1848 63.32418,72.46988 C60.47616,73.57201 58.57439,72.7844 57.61888,70.10703 C56.88558,69.8555 56.2994,69.49136 55.86032,69.01463 C55.63027,69.96331 54.97697,71.22402 54.18928,72.84043 C53.57981,74.09109 52.88989,75.55469 54.43308,76.97697 C55.20468,77.68813 56.53455,78.38895 56.92954,79.02612 C57.32453,79.66328 56.78462,80.23681 55.12206,80.17845 C56.68389,83.22421 55.79031,84.91109 54.7533,86.12504 C53.71629,87.33898 52.53585,88.08001 50.8976,87.81658 L49.42509,87.28816 C49.05763,89.46791 49.58056,91.04079 50.30669,92.42618 C51.28145,94.28594 52.62239,95.80782 54.67147,97.29201 C56.53738,98.64353 58.99047,99.96382 64.95377,100.2193 z" stroke="#000000" stroke-width="0.24" fill-opacity="0" />
  <path d="M54.05638,64.48953 C53.86733,65.16229 54.14298,65.80064 54.88334,66.40458 C54.96396,68.27499 55.87581,69.50914 57.61888,70.10703 C58.57439,72.7844 60.47616,73.57201 63.32418,72.46988 C65.91553,74.1848 68.09529,73.96583 69.86343,71.81297 C73.58947,72.41901 75.43174,70.93249 75.39025,67.35342 C72.98315,68.33408 70.66231,68.68325 68.47755,68.65877 C64.38395,71.35615 59.51528,69.09087 58.93307,66.61673 C57.06289,65.94672 55.45937,65.2515 54.05638,64.48953 z" stroke="#000000" stroke-width="0.24" fill-opacity="0" />
  <path d="M125.0082,13.12952 C123.8954,14.19076 122.2377,16.2761 121.0266,17.3495 C119.8156,18.42289 119.0511,18.48433 118.664,18.36445 C118.2768,18.24456 118.2669,17.94335 118.2399,17.60608 C118.2129,17.2688 118.1688,16.89547 117.8102,16.92363 C117.4515,16.9518 116.7783,17.38147 116.12,18.19739 C115.4616,19.01332 114.8181,20.21549 114.0384,21.08597 C113.2588,21.95644 112.3429,22.49521 111.7322,22.73296 C111.1215,22.9707 110.8159,22.90743 110.6351,22.71822 L110.3273,21.89574 C110.2566,21.5776 110.1714,21.25644 109.5237,21.36133 C108.876,21.46622 107.6658,21.99717 106.58,22.45901 C105.4942,22.92085 104.5327,23.31359 103.8826,23.33833 C103.2326,23.36306 102.8939,23.01978 102.627,22.62307 C102.3602,22.22636 102.165,21.77623 102.2141,21.41081 C102.2633,21.04539 102.5566,20.76469 102.8261,20.78255 L103.6878,21.12792 C104.0346,21.13902 104.4824,20.84479 104.6834,20.22248 L105.0443,17.70984 C105.2504,16.7699 105.7084,15.84042 106.2396,15.29029 C106.7708,14.74017 107.3753,14.56941 107.6913,14.38067 C108.0073,14.19192 108.035,13.98519 107.8232,13.83512 L106.8236,13.4043 C106.4868,13.21695 106.2643,12.93566 106.3773,12.61002 C106.4902,12.28438 106.9387,11.91438 107.4327,11.69042 L109.0249,11.32964 L110.7407,11.01342 L112.504,10.13797 C113.1047,9.875382 113.7234,9.745521 114.3453,9.802199 L116.0478,10.15473 C116.5035,10.20737 116.79,10.06943 116.9629,9.930712 C117.1358,9.791996 117.1951,9.652509 117.0765,9.510358 L116.5218,9.019895 C116.3818,8.816398 116.3982,8.554216 116.614,8.318161 L117.6243,7.817919 L118.8563,7.932655 L120.539,7.977591 L121.8389,7.745979 C122.3229,7.717206 122.9722,7.806129 123.6141,8.132523 C124.2559,8.458915 124.8903,9.022778 125.7565,9.365265 C126.6226,9.707751 127.7205,9.828863 128.5805,9.79827 C129.4404,9.767677 130.0624,9.58538 130.7189,9.254684 L132.483,8.265575 C132.8995,8.086255 133.0415,8.206707 133.0825,8.393504 L133.053,9.085464 L132.9503,9.838128 C132.8189,10.08787 132.517,10.33646 132.154,10.36751 C131.7909,10.39856 131.3667,10.21208 130.5403,10.4469 L127.5873,11.6845 C126.689,12.03114 126.121,12.06828 125.0082,13.12952 z" stroke="#000000" stroke-width="0.24" fill-opacity="0" />
  <path d="M117.614,58.25826 C118.7164,59.52987 118.2565,62.17445 116.7895,62.99921 C115.5179,64.10161 112.8733,63.64168 112.0485,62.1747 C110.9461,60.90309 111.4061,58.25851 112.873,57.43375 C114.1446,56.33135 116.7892,56.79128 117.614,58.25826 z" stroke="#000000" stroke-width="0.24" fill-opacity="0" />
  <path d="M44.95992,19.75091 L45.54768,19.63183 L45.80201,19.53358 C47.18795,20.96808 48.38235,22.74694 49.38523,24.87018 L47.73333,22.48442 C46.82464,21.34105 45.89327,20.43995 44.95992,19.75091 z" stroke="#000000" stroke-width="0.24" fill-opacity="0" />
  <path d="M25.08643,67.28201 C25.84429,65.56945 26.83387,63.73014 28.1096,61.7485 L29.125,60.23072 L29.96663,49.8111 C30.53838,38.99538 28.87491,24.78048 35.06964,19.66156 C36.76048,18.26436 39.03677,17.54482 41.48821,18.10147 C41.14396,17.62584 40.87818,17.03189 40.75095,16.29714 L40.6867,14.88582 C36.14383,11.41213 32.54667,11.56894 30.00409,12.85885 C21.86889,16.98601 24.5299,32.71312 23.99442,45.63142 C23.72668,52.09058 22.65982,57.84752 23.56722,62.75002 C23.81381,64.08228 24.20619,65.35144 25.08643,67.28201 z" stroke="#000000" stroke-width="0.24" fill-opacity="0" />
  <path d="M86.10863,51.55914 C86.1024,48.55987 85.15341,46.57365 83.26004,45.37051 C82.6504,37.01846 78.59405,29.48426 71.36776,25.1205 L71.61446,24.69624 C72.17332,20.63736 76.8104,19.04477 80.50263,19.9978 C80.18038,20.50986 80.15783,21.14757 80.26559,21.71332 C80.42224,22.53582 80.85429,23.2062 81.56657,23.58231 C82.27885,23.95841 83.27133,24.04025 84.28489,23.70245 L85.44767,23.09876 C89.71452,27.39275 92.70244,34.04616 92.88309,44.12567 C90.61888,46.28802 88.6077,48.46967 86.9304,50.52708 z" stroke="#000000" stroke-width="0.24" fill-opacity="0" />
  <path d="M59.87253,76.63268 C60.46087,76.57304 61.12784,77.24 61.06819,77.82835 C61.12784,78.41669 60.46087,79.08366 59.87253,79.02401 C59.28418,79.08366 58.61722,78.41669 58.67686,77.82835 C58.61722,77.24 59.28418,76.57304 59.87253,76.63268 z" stroke="#000000" stroke-width="0.24" fill-opacity="0" />
  <path d="M50.25782,30.97558 C49.98798,31.12896 49.74371,31.34483 49.71814,31.57491 C49.69258,31.80498 49.88573,32.04926 50.12716,32.11175 C50.3686,32.17424 50.65832,32.05494 50.89692,31.85895 L51.35138,31.17441 C51.37979,30.95854 51.24913,30.79947 51.0361,30.76539 z" stroke="#000000" stroke-width="0.24" fill-opacity="0" />
  <path d="M105.4448,50.20274 C105.8717,51.47478 105.4719,53.08733 105.8311,53.90442 C106.1904,54.7215 107.3087,54.74313 107.8891,55.3789 C108.4695,56.01468 108.5119,57.26461 107.1971,58.49397 C105.8823,59.72332 103.2102,60.93209 100.3791,62.75586 C97.54805,64.57964 94.55792,67.01839 92.17217,69.30871 C89.78643,71.59903 88.00507,73.7409 86.85992,75.0239 C85.71476,76.3069 85.2058,76.73103 84.78167,76.68861 C84.35754,76.6462 84.01823,76.13725 84.18788,74.47253 C84.35754,72.8078 85.03615,69.98732 86.4782,66.47763 C87.92025,62.96793 90.12573,58.76902 92.23579,55.72587 C94.34586,52.68272 96.36048,50.79533 98.05701,49.54491 C99.75354,48.29449 101.132,47.68104 102.4481,47.84009 C103.7641,47.99914 105.0179,48.93069 105.4448,50.20274 z" stroke="#000000" stroke-width="0.24" fill-opacity="0" />
  <path d="M33.6014,54.64106 C32.57029,52.78197 32.13426,51.60352 31.88089,50.67889 C31.52944,49.3963 31.52944,48.6021 31.83068,47.9859 C32.13194,47.36972 32.73443,46.93153 33.36888,46.78091 C34.00333,46.63029 34.66973,46.76722 35.42741,47.17345 C36.1851,47.57968 37.03408,48.2552 37.66853,49.36435 L38.16195,50.35952 C36.52394,51.67423 34.99767,53.13014 33.6014,54.64106 z" stroke="#000000" stroke-width="0.24" fill-opacity="0" />
  <path d="M74.60945,70.54419 C75.31862,70.94149 76.05609,71.82713 76.74621,73.57841 L76.38647,76.73 C76.26804,78.49075 76.31548,80.0779 76.49487,81.45753 C75.0895,84.75528 73.57538,86.60701 71.95248,87.01273 C68.23337,92.1857 64.7002,91.76307 62.71477,90.89013 C60.72934,90.0172 60.29165,88.69395 60.26583,87.09757 C60.24002,85.50121 60.62607,83.63171 63.77042,82.2793 C62.45182,81.265 62.4011,80.47897 63.45767,80.36486 C64.51424,80.25076 66.67809,80.80859 67.95161,80.99735 C69.22513,81.18611 69.60831,81.00579 69.72665,80.22816 C69.84499,79.45052 69.69847,78.07557 69.69284,76.69498 C69.6872,75.31441 69.82244,73.92818 70.22816,72.84062 L70.69029,71.91571 C72.5463,72.06908 73.85268,71.6119 74.60945,70.54419 z" stroke="#000000" stroke-width="0.24" fill-opacity="0" />
  <path d="M46.00267,56.38188 C48.81771,55.73373 52.05864,56.14661 56.49657,58.49492" stroke="#000000" stroke-width="0.24" fill-opacity="0" />
  <path d="M49.58889,90.68893 L50.30669,92.42618 L50.45116,92.69452 C49.49942,93.22048 49.11706,94.34874 49.30408,96.07929 L46.91587,96.07584 L49.30408,96.0793 C49.11706,94.34874 49.49942,93.22048 50.45116,92.69452 L50.30669,92.42618 z" stroke="#000000" stroke-width="0.24" fill-opacity="0" />
  <path d="M78.68861,65.62183 C71.62579,70.19222 65.08301,68.6736 60.2184,67.05956 C55.3441,65.44231 52.15467,63.72926 49.68089,61.31183 C48.15609,59.82176 46.90318,58.06408 46.00267,56.38188 C44.30161,56.77355 42.75605,57.55265 41.19584,58.52626 C37.05371,61.11104 32.80835,65.06673 30.72494,69.29578 C28.64153,73.52483 28.72007,78.02726 29.20394,81.38801 C29.68781,84.74876 30.57701,86.96784 32.78658,87.33017 C34.99616,87.69249 38.5261,86.19806 38.5261,82.52969 C37.69447,82.1165 37.6465,81.01382 37.85725,80.39803 C38.068,79.78225 38.53747,79.65336 39.08596,79.77623 C39.63446,79.8991 40.26199,80.27374 41.06609,80.19077 C41.8702,80.10781 42.85088,79.56725 43.44463,79.96899 C44.03836,80.37072 44.24516,81.71477 43.06591,82.52969 C42.83028,85.59286 40.15982,89.16657 37.20136,90.94034 C34.24291,92.7141 30.99646,92.68792 28.53545,91.11706 C26.07443,89.5462 24.39885,86.43066 23.41706,81.79662 C22.43527,77.16257 22.14728,71.01004 28.1096,61.7485 C32.02825,55.66148 38.64679,48.2315 46.67916,45.52935 C47.16679,45.16132 47.63869,44.8755 47.83823,43.97283 L47.87498,43.78185 C48.49718,43.75108 49.00767,43.12961 49.38861,42.44705 C50.02376,41.30898 50.29874,40.00105 50.18641,38.11933 C50.07407,36.23762 49.57441,33.78212 48.25074,33.75164 L48.24806,33.75158 L49.06667,30.29942 C50.08097,27.14098 51.97435,23.60781 55.15969,22.44154 C55.37577,23.35785 55.96457,23.54955 56.69374,23.26885 C57.1344,23.09921 57.62632,22.75704 57.94662,21.76382 C61.52223,21.29095 65.43079,22.16129 69.04491,23.8759 C69.22604,24.67541 69.60168,25.0317 69.96094,25.24724 C70.4985,25.56977 70.99938,25.57718 71.36776,25.1205 C78.59405,29.48426 82.6504,37.01846 83.26004,45.37051 C85.15341,46.57365 86.1024,48.55987 86.10863,51.55914 C82.43634,56.28471 80.50795,60.37249 79.08826,64.43719 z" stroke="#000000" stroke-width="0.24" fill-opacity="0" />
  <path d="M76.1168,90.36176 C72.18486,89.37193 69.94321,92.54115 68.47884,95.60302 C67.01447,98.66489 66.32738,101.6194 66.48197,103.6463 C66.63657,105.6732 67.63286,106.7726 69.36739,107.1161 C71.10191,107.4597 73.57468,107.0474 74.42956,102.3414 L74.05028,99.86819 C73.70085,96.3326 74.25571,93.05215 76.1168,90.36176 z" stroke="#000000" stroke-width="0.24" fill-opacity="0" />
  <path d="M93.26909,100.8204 C97.27104,101.9197 100.1852,101.1855 103.1203,100.5103 C106.0554,99.83514 109.0114,99.21887 110.943,99.9665 C112.8747,100.7141 113.7821,102.8257 113.4174,104.5525 C113.0528,106.2794 111.4161,107.6216 107.166,107.7666 C102.9158,107.9116 96.05223,106.8594 90.93694,104.3414 C85.82164,101.8234 82.45463,97.83955 83.316,97.31396 C84.17738,96.78838 89.26713,99.72108 93.26909,100.8204 z" stroke="#000000" stroke-width="0.24" fill-opacity="0" />
  <path d="M57.62115,114.8897 C53.63102,116.657 49.89552,116.9262 46.73187,116.0292 C37.425,113.3903 33.75224,106.0044 35.46046,94.47054 L35.99322,91.55943 L37.20136,90.94034 C39.86251,89.34483 42.29064,86.29296 42.92328,83.46631 C44.2955,83.73247 45.80577,83.87795 47.48105,83.8747 C47.69016,85.6993 48.50078,86.73147 49.42509,87.28816 C49.05763,89.46791 49.58056,91.04079 50.30669,92.42618 L50.45116,92.69452 C49.49942,93.22048 49.11706,94.34874 49.30408,96.07929 L46.42801,96.10867 C42.75832,96.39751 41.49636,97.44466 40.79547,98.54912 C40.31042,99.31342 40.09408,100.1052 40.10821,101.0118 L40.26064,102.2981 C41.1143,106.436 45.43915,113.0739 56.86007,112.3776 C56.92997,113.2283 57.14476,114.0813 57.62115,114.8897 z" stroke="#000000" stroke-width="0.24" fill-opacity="0" />
  <path d="M115.9522,37.74649 C112.5511,37.35467 108.6956,41.73594 109.0404,45.60079 C108.6956,49.46564 112.5511,53.84691 115.9522,53.4551 C119.3532,53.84691 123.2088,49.46564 122.864,45.60079 C123.2088,41.73594 119.3532,37.35467 115.9522,37.74649 z" stroke="#000000" stroke-width="0.24" fill-opacity="0" />
  <path d="M97.42532,80.30494 C98.32129,79.22301 99.71878,77.73536 101.2121,77.25075 C102.7053,76.76614 104.2944,77.28456 105.0326,78.25378 C105.7708,79.22301 105.6581,80.64304 104.903,82.05743 C104.1479,83.47182 102.7504,84.88058 100.9529,85.84418 C99.15527,86.80777 96.95761,87.32619 94.56836,87.52905 C92.1791,87.73191 89.59826,87.61921 87.89084,87.46706 C86.18343,87.31492 85.34944,87.12333 84.81975,86.80213 C84.29005,86.48093 84.06465,86.03013 84.08156,85.58496 C84.09846,85.13979 84.35767,84.70026 85.24238,84.50304 L89.49119,84.09731 C91.34512,83.84373 93.54278,83.2915 94.83884,82.67728 C96.1349,82.06306 96.52935,81.38686 97.42532,80.30494 z" stroke="#000000" stroke-width="0.24" fill-opacity="0" />
  <path d="M54.39017,19.49529 C50.93933,22.16214 48.68771,26.47398 48.40681,32.85515 L49.06667,30.29942 C50.08097,27.14098 51.97435,23.60781 55.15969,22.44154 C55.19998,21.32581 54.91046,20.33837 54.39017,19.49529 z" stroke="#000000" stroke-width="0.24" fill-opacity="0" />
  <path d="M76.74621,73.57841 L76.74766,73.5821 C76.05713,71.82838 75.31911,70.94176 74.60945,70.54419 C75.06529,69.90105 75.32172,69.03638 75.37872,67.95018 C76.13642,68.92395 76.71935,70.11195 77.12174,71.50682 z" stroke="#000000" stroke-width="0.24" fill-opacity="0" />
  <path d="M99.38792,70.95793 C99.46117,71.93279 99.07799,73.47679 98.13694,75.00952 C97.19588,76.54225 95.69697,78.06371 94.42908,78.79063 C93.1612,79.51755 92.12435,79.44993 91.44251,79.30905 C90.76067,79.16817 90.43385,78.95404 90.31551,78.50887 C90.19717,78.06371 90.28733,77.3875 90.80013,76.62678 C91.31291,75.86604 92.24833,75.02079 93.05977,74.6038 C93.87122,74.18681 94.55869,74.19807 95.12783,73.82616 C95.69697,73.45425 96.14777,72.69916 96.64928,71.85954 C97.1508,71.01991 97.70304,70.09577 98.244,69.83656 C98.78497,69.57735 99.31466,69.98307 99.38792,70.95793 z" stroke="#000000" stroke-width="0.24" fill-opacity="0" />
  <path d="M98.25069,92.52047 C96.78565,92.4548 94.86617,92.58276 93.21806,92.98756 C91.56997,93.39236 90.19327,94.074 89.01589,94.36236 C87.83852,94.65071 86.86046,94.54579 86.41238,94.71505 C85.96431,94.88432 86.04622,95.32776 86.62294,95.74181 C87.19967,96.15588 88.27121,96.54056 89.21474,96.72761 L92.30681,97.24521 C93.63983,97.58632 95.49036,98.2791 96.95979,98.55692 C98.42921,98.83474 99.5175,98.6976 100.3652,98.37505 C101.2129,98.05249 101.8199,97.54452 102.0085,96.63524 C102.197,95.72595 101.9669,94.41536 101.3466,93.6304 C100.7263,92.84545 99.71572,92.58614 98.25069,92.52047 z" stroke="#000000" stroke-width="0.24" fill-opacity="0" />
  <path d="M83.23512,92.85524 C83.85756,93.57322 83.59787,95.06642 82.76958,95.5321 C82.0516,96.15454 80.5584,95.89486 80.09271,95.06656 C79.47027,94.34858 79.72996,92.85538 80.55825,92.38969 C81.27624,91.76726 82.76944,92.02695 83.23512,92.85524 z" stroke="#000000" stroke-width="0.24" fill-opacity="0" />
  <path d="M56.86007,112.3776 L56.91683,110.3087 C57.07525,108.8667 57.38668,107.553 57.93566,106.342 C54.43525,99.36098 44.33675,98.69907 40.10821,101.0118 L40.26064,102.2981 C41.1143,106.436 45.43915,113.0739 56.86007,112.3776 z" stroke="#000000" stroke-width="0.24" fill-opacity="0" />
  <path d="M68.47755,68.65877 C64.38395,71.35615 59.51528,69.09087 58.93307,66.61673 L60.2184,67.05956 C62.61133,67.85352 65.41033,68.62439 68.47755,68.65877 z" stroke="#000000" stroke-width="0.24" fill-opacity="0" />
  <path d="M41.51945,86.67927 C42.98901,85.63693 44.42584,85.05027 45.35625,84.88261 C46.55379,84.6668 46.91236,85.14511 46.84871,85.71526 C46.77312,86.3922 46.10231,87.19862 44.83982,88.073 C44.11416,88.57558 43.19303,89.10061 42.54847,89.85271 L41.3713,91.65831 C40.48975,92.99545 39.33515,93.71275 38.44965,94.06289 C37.56416,94.41303 36.94777,94.39602 36.58415,94.03477 C36.22731,93.68025 36.1139,92.99423 36.57788,91.98687 L37.19534,90.94395 L37.20136,90.94034 C38.85601,89.94828 40.42057,88.39318 41.51945,86.67927 z" stroke="#000000" stroke-width="0.24" fill-opacity="0" />
  <path d="M80.50263,19.9978 C80.18038,20.50986 80.15783,21.14757 80.26559,21.71332 C80.42224,22.53582 80.85429,23.2062 81.56657,23.58231 C82.27885,23.95841 83.27133,24.04025 84.28489,23.70245 C85.29845,23.36466 86.33307,22.60723 86.86554,21.1227 C87.398,19.63816 87.42831,17.4265 85.98127,15.49846 C84.53423,13.57042 81.60983,11.926 78.08152,12.56558 C74.55322,13.20516 70.421,16.12873 69.14789,20.61059 C68.56394,23.95375 69.29094,24.84526 69.96094,25.24724 C70.63094,25.64923 71.24395,25.5617 71.61446,24.69624 C72.17332,20.63736 76.8104,19.04477 80.50263,19.9978 z" stroke="#000000" stroke-width="0.24" fill-opacity="0" />
  <path d="M79.21565,87.28587 C77.92794,88.18831 76.90517,89.22209 76.1168,90.36176" stroke="#000000" stroke-width="0.24" fill-opacity="0" />
  <path d="M44.29097,68.13168 C43.31876,67.74371 42.25069,67.28726 41.1096,66.43372 C39.9685,65.58018 38.75438,64.32954 37.63611,64.13328 C36.51783,63.93701 35.49541,64.79511 35.49541,66.10509 C35.49541,67.41507 36.51783,69.17692 38.4577,70.41386 C40.39756,71.65081 43.25486,72.36285 44.83413,72.06617 C46.41341,71.76949 46.71465,70.46407 46.4271,69.65161 C46.13954,68.83915 45.26318,68.51965 44.29097,68.13168 z" stroke="#000000" stroke-width="0.24" fill-opacity="0" />
  <path d="M45.92478,35.44856 C44.88153,35.53888 43.85983,36.066 43.26717,36.93123 C42.5089,38.03822 42.45292,39.69865 41.88408,40.38649 C41.31525,41.07432 40.23356,40.78955 39.50156,41.24255 C38.76955,41.69556 38.38722,42.88633 39.3161,44.42816 C39.86963,45.34697 40.88881,46.39045 42.09296,47.6187 C43.57256,46.77085 45.10668,46.05905 46.682,45.5291 C47.16962,45.16108 47.64153,44.87525 47.84107,43.97258 L47.87782,43.78161 C47.46261,43.80215 46.99766,43.55964 46.48827,42.89671 C45.81695,42.02303 45.06845,40.41916 44.96962,38.93298 C44.88156,37.6088 45.30925,36.37805 45.92478,35.44856 z" stroke="#000000" stroke-width="0.24" fill-opacity="0" />
  <path d="M50.04723,111.81 C47.75023,113.5142 43.73072,112.1228 43.21114,107.8644 C44.76532,109.5381 46.98418,111.0157 50.04723,111.81 z" stroke="#000000" stroke-width="0.24" fill-opacity="0" />
  <path d="M89.8941,90.42966 L93.40414,90.7417 C98.86659,91.06492 106.2361,90.80634 111.8333,89.76134 C117.4305,88.71633 121.2554,86.8849 124.0406,84.19145 C126.8258,81.49801 128.5712,77.94257 129.4354,74.13924 C130.2997,70.33591 130.2827,66.28469 130.1126,63.20861 C129.9426,60.13253 129.6193,58.03159 130.6262,54.71497 C131.6331,51.39835 133.97,46.86605 134.7068,42.95409 C135.4435,39.04213 134.5802,35.7505 132.814,33.2971 C129.9988,29.3865 124.8899,27.60555 113.6371,30.40151 C126.8017,29.42919 127.0289,38.1688 126.4764,44.14874 C125.9238,50.12867 124.5915,53.34894 123.8468,56.42521 C123.1021,59.50148 122.945,62.43375 122.7748,65.47075 C122.6046,68.50774 122.4213,71.64947 121.2432,74.909 C120.0651,78.16854 117.892,81.54589 115.2477,83.81055 C112.6035,86.07521 109.4879,87.22717 105.2203,88.417 C100.9526,89.60683 95.53285,90.83453 89.8941,90.42966 z" stroke="#000000" stroke-width="0.24" fill-opacity="0" />
  <path d="M59.87008,46.02046 C55.34862,43.99678 50.86822,44.12011 46.67916,45.52935" stroke="#000000" stroke-width="0.24" fill-opacity="0" />
  <path d="M113.6371,30.40151 C102.9438,34.44366 92.85466,43.26033 86.9304,50.52708 C82.71699,55.69527 80.61028,60.07949 79.08826,64.43719 C77.56624,68.7949 76.62889,73.12608 76.38647,76.73 C76.14406,80.33394 76.59657,83.21062 77.45311,85.06915 C78.30965,86.92767 79.57021,87.76805 81.97823,88.64075 C83.82642,89.31057 86.35057,89.99943 89.8941,90.42966 C95.53285,90.83453 100.9526,89.60683 105.2203,88.417 C109.4879,87.22717 112.6035,86.07521 115.2477,83.81055 C117.892,81.54589 120.0651,78.16854 121.2432,74.909 C122.4213,71.64947 122.6046,68.50774 122.7748,65.47075 C122.945,62.43375 123.1021,59.50148 123.8468,56.42521 C124.5915,53.34894 125.9238,50.12867 126.4764,44.14874 C127.0289,38.1688 126.8017,29.42919 113.6371,30.40151 z" stroke="#000000" stroke-width="0.24" fill-opacity="0" />
  <path d="M35.99322,91.55943 L33.79492,92.19079 C24.90591,114.8959 42.23862,132.0024 62.39336,118.2247 L60.70813,117.546 C59.15783,116.7814 58.19783,115.8682 57.62115,114.8897 C53.63102,116.657 49.89552,116.9262 46.73187,116.0292 C37.425,113.3903 33.75224,106.0044 35.46046,94.47054 z" stroke="#000000" stroke-width="0.24" fill-opacity="0" />
  <path d="M34.92416,39.87202 C35.89837,40.13191 36.55952,41.59793 36.1094,42.50016 C35.84951,43.47437 34.38349,44.13551 33.48126,43.6854 C32.50705,43.42551 31.84591,41.95949 32.29602,41.05726 C32.55591,40.08305 34.02193,39.42191 34.92416,39.87202 z" stroke="#000000" stroke-width="0.24" fill-opacity="0" />
  <path d="M69.48917,42.1928 C68.84599,41.36345 69.2224,39.73233 70.16396,39.26869 C70.9933,38.62552 72.62442,39.00193 73.08807,39.94349 C73.73124,40.77283 73.35483,42.40395 72.41327,42.86759 C71.58392,43.51077 69.9528,43.13435 69.48917,42.1928 z" stroke="#000000" stroke-width="0.24" fill-opacity="0" />
  <path d="M27.08552,131.4353 C24.84793,131.6374 21.05614,132.5154 18.69517,132.6421 C16.33419,132.7687 15.40403,132.144 15.07022,131.6549 C14.7364,131.1658 14.99892,130.8123 15.27467,130.402 C15.55043,129.9917 15.83941,129.5246 14.84002,128.6466 C13.84064,127.7686 11.55289,126.4796 10.3714,125.4848 C9.189909,124.4901 9.114672,123.7896 9.170088,123.0932 C9.225504,122.3968 9.411572,121.7046 9.799955,121.3313 C10.18834,120.958 10.77904,120.9037 11.07099,121.1691 C11.36294,121.4345 11.35614,122.0196 11.74262,122.3475 C12.1291,122.6755 12.90886,122.7461 13.70445,122.2171 C14.50003,121.688 15.31145,120.5592 16.29034,120.1328 C17.26923,119.7064 18.4156,119.9825 19.21535,120.1719 L20.79209,120.4625 C21.11594,120.4611 21.3105,120.3554 21.30417,120.085 L21.11556,119.0197 C21.14049,118.6597 21.39755,118.3747 21.85898,118.3009 C22.32041,118.2272 22.98622,118.3646 23.46928,118.6473 C23.95235,118.93 24.25268,119.358 24.77404,119.8986 L26.65778,121.4798 L28.3551,122.3967 C28.9348,122.8038 29.59657,123.4958 30.03395,124.4527 C30.47133,125.4095 30.6843,126.6312 31.36358,127.8103 C32.04285,128.9895 33.18844,130.1261 34.19979,130.873 C35.21114,131.6198 36.08827,131.9768 37.1398,132.1954 L40.05665,132.6679 C40.69605,132.8415 40.74894,133.1083 40.626,133.3592 L39.96321,134.1239 C39.72213,134.4026 39.53875,134.7251 39.16143,134.8913 C38.78411,135.0575 38.21286,135.0674 37.7694,134.7728 C37.32594,134.4783 37.01028,133.8793 35.85166,133.3966 C34.69304,132.9139 32.69147,132.5475 31.34899,132.1273 C30.00651,131.7072 29.32311,131.2333 27.08552,131.4353 z" stroke="#000000" stroke-width="0.24" fill-opacity="0" />
  <path d="M47.01507,28.97823 C47.98928,29.23812 48.65043,30.70414 48.20031,31.60637 C47.94043,32.58057 46.4744,33.24172 45.57217,32.7916 C44.59797,32.53172 43.93682,31.0657 44.38694,30.16347 C44.64682,29.18926 46.11284,28.52811 47.01507,28.97823 z" stroke="#000000" stroke-width="0.24" fill-opacity="0" />
  <path d="M54.78227,97.37171 C51.87604,96.04101 48.69329,95.93036 46.42801,96.10867 C42.75832,96.39751 41.49636,97.44466 40.79547,98.54912 C40.31042,99.31342 40.09408,100.1052 40.10821,101.0118 C44.33675,98.69907 54.43525,99.36098 57.93566,106.342 C58.32797,105.4766 58.84161,104.6637 59.50742,103.8941 L60.62153,102.7757 C59.03984,100.6473 58.42742,99.9394 57.76763,99.33567 L56.91015,98.62696 z" stroke="#000000" stroke-width="0.24" fill-opacity="0" />
  <path d="M29.25134,73.80444 C28.74714,76.55494 28.8905,79.21101 29.20394,81.38801 C29.68781,84.74876 30.57701,86.96784 32.78658,87.33017 C34.99616,87.69249 38.5261,86.19806 38.5261,82.52969 C38.16039,82.34798 37.94622,82.03294 37.83896,81.6846 C34.91765,80.12575 32.79198,77.92231 30.85544,75.70573 z" stroke="#000000" stroke-width="0.24" fill-opacity="0" />
  <path d="M111.0862,89.89444 C115.073,92.17386 115.1431,97.36837 115.3764,100.3489 C115.619,103.4473 116.038,104.153 117.0414,106.5899 C118.0448,109.0268 119.6327,113.1949 119.5224,116.6462 C119.4121,120.0975 117.6038,122.8321 114.6707,124.464 C111.7376,126.096 107.6798,126.6253 103.0928,125.9196 C98.50571,125.2139 93.38937,123.2732 89.32055,120.6599 C85.25173,118.0466 82.23044,114.7606 79.73843,110.78 C77.24641,106.7994 75.28368,102.1241 74.86467,97.88441 C74.44566,93.64468 75.57037,89.84051 79.21565,87.28587 C79.92593,87.80811 80.81915,88.22069 81.97823,88.64075 C83.82642,89.31057 86.35057,89.99943 89.8941,90.42966 L93.40414,90.7417 C98.62679,91.05073 105.5927,90.82793 111.0862,89.89444 z" stroke="#000000" stroke-width="0.24" fill-opacity="0" />
  <path d="M47.17335,16.13535 C47.45912,16.70856 47.37593,17.41865 47.15085,18.01458 C46.85501,18.79785 46.31404,19.38389 45.54768,19.63183 C44.78131,19.87977 43.78955,19.78961 42.84923,19.28246 C41.90891,18.7753 41.02004,17.85116 40.75095,16.29714 C40.48186,14.74312 40.83255,12.55924 42.58976,10.90894 C44.34697,9.258637 47.5107,8.141928 50.87634,9.379061 C54.24197,10.61619 57.80951,14.20717 58.29247,18.84124 C58.29247,22.23501 57.42292,22.98814 56.69374,23.26885 C55.96457,23.54955 55.37577,23.35785 55.15969,22.44154 C55.30756,18.34704 51.01366,15.98033 47.17335,16.13535 z" stroke="#000000" stroke-width="0.24" fill-opacity="0" />
  <path d="M77.82886,111.6461 C72.18431,120.4445 64.59291,119.4618 60.70813,117.546 C56.82335,115.6301 56.64518,112.781 56.91683,110.3087 C57.18847,107.8363 57.90992,105.7407 59.50742,103.8941 C61.10491,102.0475 63.57845,100.45 66.98668,99.57178 C66.56836,101.1211 66.39649,102.5255 66.48197,103.6463 C66.63657,105.6732 67.63286,106.7726 69.36739,107.1161 C71.10191,107.4597 73.57468,107.0474 74.42956,102.3414 C75.06239,105.4312 76.28143,108.6285 77.82886,111.6461 z" stroke="#000000" stroke-width="0.24" fill-opacity="0" />
  <path d="M48.40681,32.85515 C48.52745,30.11444 49.01164,27.75545 49.79824,25.74458 L49.38523,24.87018 L47.73333,22.48442 C46.82464,21.34105 45.89327,20.43995 44.95992,19.75091 C44.30758,19.81235 43.56356,19.66773 42.84923,19.28246 C42.3535,19.01509 41.87207,18.63183 41.48821,18.10147 C39.03677,17.54482 36.76048,18.26436 35.06964,19.66156 C28.87491,24.78048 30.53838,38.99538 29.96663,49.8111 L29.125,60.23072 C30.40392,58.38923 31.90694,56.47464 33.6014,54.64106 C32.57029,52.78197 32.13426,51.60352 31.88089,50.67889 C31.52944,49.3963 31.52944,48.6021 31.83068,47.9859 C32.13194,47.36972 32.73443,46.93153 33.36888,46.78091 C34.00333,46.63029 34.66973,46.76722 35.42741,47.17345 C36.1851,47.57968 37.03408,48.2552 37.66853,49.36435 L38.16195,50.35952 C39.41305,49.35535 40.72933,48.43356 42.10266,47.63257 C40.88881,46.39045 39.86963,45.34697 39.3161,44.42816 C38.38722,42.88633 38.76955,41.69556 39.50156,41.24255 C40.23356,40.78955 41.31525,41.07432 41.88408,40.38649 C42.45292,39.69865 42.5089,38.03822 43.26717,36.93123 C43.85929,36.06679 44.87967,35.53984 45.92194,35.44881 C46.61522,34.4019 47.54679,33.73717 48.24806,33.75158 z" stroke="#000000" stroke-width="0.24" fill-opacity="0" />
  <path d="M54.78227,97.37171 L54.78225,97.37171 L54.78217,97.37167 z" stroke="#000000" stroke-width="0.24" fill-opacity="0" />
  <path d="M50.45114,92.69453 C49.49941,93.22049 49.11706,94.34875 49.30408,96.0793 C51.04407,96.18541 52.96709,96.5406 54.78225,97.37172 L54.67145,97.29202 C52.72179,95.87983 51.41321,94.43353 50.45114,92.69453 z" stroke="#000000" stroke-width="0.24" fill-opacity="0" />
  <path d="M49.58889,90.68893 C48.74101,93.3663 47.85001,95.16193 46.91587,96.07584" stroke="#000000" stroke-width="0.24" fill-opacity="0" />
  <path d="M69.04491,23.8759 C69.22604,24.67541 69.60168,25.0317 69.96094,25.24724 C70.4985,25.56977 70.99938,25.57718 71.36776,25.1205" stroke="#000000" stroke-width="0.24" fill-opacity="0" />
  <path d="M81.14235,19.39677 L80.50263,19.9978" stroke="#000000" stroke-width="0.24" fill-opacity="0" />
</svg>