<?xml version="1.0" encoding="UTF-8" standalone="no"?>
<!DOCTYPE svg PUBLIC "-//W3C//DTD SVG 1.1//EN" "http://www.w3.org/Graphics/SVG/1.1/DTD/svg11.dtd">
<svg width="240pt" height="240pt" viewBox="0 0 240 240" overflow="visible" version="1.1" xmlns="http://www.w3.org/2000/svg">
  <path d="M126.5672,36.26304 C129.0582,39.52577 128.738,41.10929 125.6065,41.01359 C124.6838,42.47459 123.0811,43.07041 120.7983,42.80104 C119.1933,43.9947 118.0938,43.71524 117.4287,42.8354 C116.7636,41.95555 116.533,40.47533 117.1678,38.35299 C120.1963,39.51838 124.3179,38.60194 126.5672,36.26304 z" stroke="#000000" stroke-width="0.24" fill-opacity="0" />
  <path d="M52.26036,175.4559 C54.20964,176.8919 56.44176,177.2251 58.95673,176.4555 C66.40839,174.1752 73.15167,176.6884 79.18659,183.9952 C79.25789,185.3829 79.45198,186.809 79.78645,188.2456 C73.52628,181.1228 66.43751,178.5097 58.52015,180.4064 C55.67021,181.0891 53.1014,180.4322 50.81374,178.4355 C51.21389,177.4265 51.69645,176.4277 52.26036,175.4559 z" stroke="#000000" stroke-width="0.24" fill-opacity="0" />
  <path d="M50.81374,178.4355 C49.74493,181.124 49.27542,183.873 49.2781,186.4311 C49.12267,191.8426 51.77607,198.3527 56.61966,202.8357 C61.46325,207.3188 68.49702,209.7746 74.34375,209.6308 C79.74448,209.6828 86.04829,207.8316 90.83991,203.8985 C85.09525,200.1385 81.07686,194.1148 79.78645,188.2456 C73.52628,181.1228 66.43751,178.5097 58.52015,180.4064 C55.67021,181.0891 53.1014,180.4322 50.81374,178.4355 z" stroke="#000000" stroke-width="0.24" fill-opacity="0" />
  <path d="M132.3064,148.4132 C131.2261,149.6895 130.342,151.2529 129.6539,153.1036" stroke="#000000" stroke-width="0.24" fill-opacity="0" />
  <path d="M109.692,178.3774 C111.7783,175.6476 114.1065,174.182 116.6766,173.9807 C117.3044,175.418 118.121,176.5854 119.0158,177.5334 C115.0609,178.3838 112.0402,180.1739 109.954,182.9037 C109.7723,181.5501 109.6872,180.2155 109.6872,178.9135 z" stroke="#000000" stroke-width="0.24" fill-opacity="0" />
  <path d="M37.93995,125.5894 C42.43819,126.3159 46.07605,132.6076 44.46155,136.8685 C43.73505,141.3667 37.44337,145.0046 33.18246,143.3901 C28.68422,142.6636 25.04636,136.3719 26.66086,132.111 C27.38736,127.6127 33.67904,123.9749 37.93995,125.5894 z" stroke="#000000" stroke-width="0.24" fill-opacity="0" />
  <path d="M62.7694,165.8528 C62.5982,165.2648 62.38953,164.8058 62.15263,164.5275 C61.50839,163.78 61.12453,162.9283 61.09207,162.3993 C61.068,161.8514 60.61013,161.2162 60.08938,161.0083 C59.58273,160.7551 58.88988,160.8739 58.5721,161.2685 C58.21643,161.6267 58.15501,162.351 58.43757,162.8546 C58.1283,162.7755 57.9393,162.6609 57.86985,162.5021 C57.38208,161.3837 56.83776,159.9386 56.4725,158.6812 C56.13243,157.422 54.62599,155.6756 53.14579,154.4742 C51.69677,153.147 49.13588,152.9041 47.79465,153.9667 C46.32222,154.8485 45.70694,157.2862 46.50901,159.0604 C47.17465,160.8237 48.44556,162.8049 49.64261,163.5145 C50.63391,164.13 51.61773,165.0116 52.37345,165.8634 C52.50586,166.0125 52.54017,166.25 52.48515,166.5804 C52.06402,166.2917 51.45655,166.2448 51.06723,166.4707 C50.66127,166.669 50.39117,167.1841 50.43677,167.6732 C50.4524,168.1599 50.79007,168.7215 51.22494,168.984 C51.5903,169.2466 53.5014,169.8027 56.22328,170.4017 L57.41452,169.3223 C59.03941,167.9436 60.85849,166.7725 62.7694,165.8528 z" stroke="#000000" stroke-width="0.24" fill-opacity="0" />
  <path d="M158.25,95.29044 C161.8097,90.70032 159.7264,81.6727 154.5152,79.10663 C149.9251,75.54691 140.8975,77.6302 138.3314,82.84135 C134.7717,87.43147 136.855,96.45908 142.0661,99.02516 C146.6563,102.5849 155.6839,100.5016 158.25,95.29044 z" stroke="#000000" stroke-width="0.24" fill-opacity="0" />
  <path d="M178.4721,119.6296 C185.8556,126.9128 184.937,144.4233 171.3305,150.5663 C157.7239,156.7094 131.4294,151.4849 129.6911,123.0091 C134.9757,124.6594 141.0512,125.5436 147.2816,125.6525 C158.0572,125.8408 169.296,123.7097 178.4721,119.6296 z" stroke="#000000" stroke-width="0.24" fill-opacity="0" />
  <path d="M150.9527,69.07391 C150.2398,68.58496 149.4016,68.23618 148.7942,68.45248 C148.1868,68.66877 147.8103,69.45013 147.948,70.13094 C148.0857,70.81176 148.7374,71.39202 149.519,71.7508 C150.3005,72.10957 151.2119,72.24686 151.7871,72.05499 C152.3624,71.86311 152.6016,71.34208 152.4274,70.76701 C152.2532,70.19194 151.6656,69.56284 150.9527,69.07391 z" stroke="#000000" stroke-width="0.24" fill-opacity="0" />
  <path d="M159.2296,134.426 C159.9542,132.125 159.3183,131.454 158.8539,130.8119 C159.3404,129.9047 159.3701,129.3267 158.9429,129.0776 L159.4051,129.1121 C162.484,129.7925 164.9504,130.8239 166.5538,132.9625 L165.5713,133.4181 L165.1544,132.9454 L164.5297,132.3754 L163.8309,131.8735 L163.0548,131.4318 L162.1998,131.0436 L161.3004,130.7126 C160.8614,130.5661 160.497,130.4654 160.3641,130.6516 L160.3458,131.1929 L160.4512,131.5151 L160.5594,131.9738 L160.5943,132.2361 L160.6114,132.5118 L160.566,133.3235 L160.4419,133.9974 L160.4347,134.0284 z" stroke="#000000" stroke-width="0.24" fill-opacity="0" />
  <path d="M152.7213,99.94256 C157.2733,100.2572 160.7433,102.8791 160.8781,105.3533 C161.9268,108.6737 156.0689,113.4251 150.3767,113.8713 C144.7811,115.0069 137.8428,112.0485 137.9385,108.5678 C137.2147,105.8149 140.9327,101.7867 145.9402,100.5727 C148.1636,101.04 150.622,100.8115 152.7213,99.94256 z" stroke="#000000" stroke-width="0.24" fill-opacity="0" />
  <path d="M41.78646,145.4545 C40.96807,146.9764 39.41089,147.6827 37.11491,147.5735 C35.59719,148.8764 34.48088,148.6745 33.75595,147.8433 C33.03102,147.0121 32.69746,145.5516 33.18246,143.3901 C36.28497,144.341 40.33251,143.1388 42.41286,140.6484 C45.12575,143.7291 44.91695,145.3311 41.78646,145.4545 z" stroke="#000000" stroke-width="0.24" fill-opacity="0" />
  <path d="M144.0303,32.67618 L144.8663,33.14643 C145.172,33.32577 145.3889,33.68689 145.5335,34.2335 C144.6897,33.95722 143.7283,34.14341 143.2895,34.6681 C142.806,35.15604 142.7496,36.08728 143.1578,36.84173 C143.5187,37.60541 144.4237,38.34941 145.2704,38.57833 C146.0926,38.81076 147.435,39.59846 148.861,40.79577 C150.1734,41.91555 152.95,42.77689 155.9665,43.22268 L156.4027,43.27984 C156.1674,44.09206 156.0812,44.92017 156.1192,45.69863 C156.2178,48.64352 157.1857,52.1372 158.748,53.65051 C160.0262,54.9466 161.1423,56.64896 161.9014,58.22495 C162.0345,58.50101 161.9571,58.87803 161.681,59.36641 C161.1533,58.77397 160.1843,58.48711 159.4192,58.69685 C158.6424,58.8581 157.9099,59.55434 157.7095,60.32196 C157.4612,61.07547 157.6986,62.05779 158.2635,62.61481 C158.8047,63.16362 159.3886,64.37591 159.7442,65.94307 C160.0583,67.39919 161.8298,69.31168 164.1141,71.00978 C166.3568,72.78532 169.8711,73.3185 172.5395,72.28806 C175.2583,71.39904 177.6436,68.76383 178.2583,65.97021 C178.9495,63.21041 179.1994,60.7446 178.6782,59.62699 C178.0431,58.25065 177.8932,56.80632 178.1377,55.98184 C178.4066,55.1313 178.0137,53.99337 177.2773,53.48991 C176.5895,52.9219 175.3872,52.85972 174.6445,53.35375 C173.8601,53.77856 173.3519,54.86989 173.5316,55.74363 C173.0693,55.51289 172.8241,55.27 172.7996,55.00139 C172.6296,53.11043 172.5508,50.69727 172.6597,48.63594 C172.8109,46.58069 171.325,43.3647 169.5754,40.99549 C168.4904,39.43624 166.5119,38.17685 164.4101,37.95932 C164.6626,36.2325 164.1923,34.23335 163.2258,32.51697 L163.1841,32.44196 L160.0982,32.02715 C156.484,31.71415 152.7087,31.74818 148.843,32.09028 z" stroke="#000000" stroke-width="0.24" fill-opacity="0" />
  <path d="M56.06987,151.8237 C55.81237,154.8871 66.45251,157.2046 66.45253,164.4111 C65.20691,164.7933 63.97037,165.274 62.7694,165.8528 C62.5982,165.2648 62.38953,164.8058 62.15263,164.5275 C61.50839,163.78 61.12453,162.9283 61.09207,162.3993 C61.068,161.8514 60.61013,161.2162 60.08938,161.0083 C59.58273,160.7551 58.88988,160.8739 58.5721,161.2685 C58.21643,161.6267 58.15501,162.351 58.43757,162.8546 C58.1283,162.7755 57.9393,162.6609 57.86985,162.5021 C57.38208,161.3837 56.83776,159.9386 56.4725,158.6812 C56.13243,157.422 54.62599,155.6756 53.14579,154.4742 C51.69677,153.147 49.13588,152.9041 47.79465,153.9667 C46.32222,154.8485 45.70694,157.2862 46.50901,159.0604 C47.17465,160.8237 48.44556,162.8049 49.64261,163.5145 C50.63391,164.13 51.61773,165.0116 52.37345,165.8634 C52.50586,166.0125 52.54017,166.25 52.48515,166.5804 C52.06402,166.2917 51.45655,166.2448 51.06723,166.4707 C50.66127,166.669 50.39117,167.1841 50.43677,167.6732 C50.4524,168.1599 50.79007,168.7215 51.22494,168.984 C51.5903,169.2466 53.5014,169.8027 56.22328,170.4017 C54.65154,171.9222 53.31185,173.641 52.26036,175.4559 C40.92372,171.2752 44.16315,158.9202 39.52884,156.8175 C43.11754,153.2515 48.37865,151.4879 52.79778,151.551 C53.85761,151.5509 54.95652,151.6365 56.06987,151.8237 z" stroke="#000000" stroke-width="0.24" fill-opacity="0" />
  <path d="M70.30928,163.5339 C68.60587,157.6849 62.29789,152.6519 56.06987,151.8237 C55.81237,154.8871 66.4525,157.2046 66.45253,164.4111 C67.73727,164.0165 69.03143,163.7266 70.30928,163.5339 z" stroke="#000000" stroke-width="0.24" fill-opacity="0" />
  <path d="M37.58217,159.0662 L37.32853,159.4263 C35.34903,162.2951 34.46668,165.5849 34.48151,168.5037 C33.9059,175.5557 41.0343,184.1657 49.3165,185.1475 C49.42522,183.3208 49.7761,181.42 50.41216,179.5317 L50.81374,178.4355 C44.62822,175.982 42.41502,172.2159 41.05314,168.1958 C39.69127,164.1756 39.18072,159.9015 37.58217,159.0662 z" stroke="#000000" stroke-width="0.24" fill-opacity="0" />
  <path d="M175.9563,161.3676 C179.8296,166.9143 181.5559,173.272 181.5269,178.9135 C181.7497,186.5648 177.9473,195.7695 171.0062,202.1081 C164.0652,208.4467 153.9856,211.9191 145.6071,211.7156 C137.9285,211.8492 128.8292,209.0692 122.0393,203.6678 C115.2495,198.2665 110.7692,190.2437 109.954,182.9037 C112.0402,180.1739 115.0609,178.3838 119.0158,177.5334 C120.1802,178.767 121.4769,179.6291 122.6625,180.2309 C126.8008,182.3314 129.584,181.2601 132.2603,179.1368 C134.9365,177.0134 137.5059,173.8381 135.477,166.8006 C136.5666,167.0537 137.449,167.1302 138.1082,167.0571 C142.6812,168.688 147.4473,169.4022 151.8355,169.3967 C159.7825,169.4785 169.1342,166.8499 175.9563,161.3676 z" stroke="#000000" stroke-width="0.24" fill-opacity="0" />
  <path d="M126.1251,121.7272 C123.0664,125.7347 123.2949,129.446 126.8106,132.8612 C125.1532,137.4818 126.459,140.7212 130.728,142.5795 C129.8949,146.6253 131.7026,149.1425 136.1511,150.1311 C137.2056,154.6125 140.231,156.1427 145.2273,154.7215 C148.5388,158.6014 152.0749,159.4202 155.8357,157.1779 C159.8987,159.673 163.5122,159.5644 166.6763,156.8524 C172.1005,157.6057 175.2646,156.1241 176.1686,152.4076 C180.9577,152.8016 183.5452,150.6534 183.9312,145.9627 C186.6378,144.1243 187.6233,141.2456 186.8876,137.3266 C188.7624,133.6383 188.1707,130.4866 185.1125,127.8717 C186.0146,123.937 184.4265,121.2183 180.3483,119.7156 L180.2077,118.8225 L178.4721,119.6296 C185.8556,126.9128 184.937,144.4233 171.3305,150.5663 C157.7239,156.7094 131.4294,151.4849 129.6911,123.0091 z" stroke="#000000" stroke-width="0.24" fill-opacity="0" />
  <path d="M173.0118,101.7025 C173.1605,103.2609 176.3154,104.2461 178.6677,103.4687 C181.0993,102.9944 183.3673,100.5902 182.7337,99.15868 C182.585,97.60028 179.43,96.61508 177.0778,97.39252 C174.6462,97.86684 172.3781,100.271 173.0118,101.7025 z" stroke="#000000" stroke-width="0.24" fill-opacity="0" />
  <path d="M189.5766,79.18159 C189.3362,83.20799 189.9246,86.00665 191.2837,88.44183 C192.6427,90.877 194.7724,92.94868 197.4958,89.4045 C198.9322,87.53506 200.5338,84.10317 200.7453,80.92313 C201.1462,74.89423 196.5507,69.77057 193.7184,69.83581 C190.8861,69.90105 189.817,75.15519 189.5766,79.18159 z" stroke="#000000" stroke-width="0.24" fill-opacity="0" />
  <path d="M170.8562,136.808 C171.6224,136.1704 171.6071,134.5805 170.8287,133.9577 C170.191,133.1915 168.6011,133.2068 167.9784,133.9852 C167.2121,134.6228 167.2274,136.2128 168.0059,136.8355 C168.6435,137.6018 170.2334,137.5864 170.8562,136.808 z" stroke="#000000" stroke-width="0.24" fill-opacity="0" />
  <path d="M180.0319,27.35951 C177.9805,30.04643 178.2442,31.35048 180.823,31.27167 C181.5829,32.47483 182.9028,32.9655 184.7827,32.74367 C186.1045,33.72667 187.0099,33.49652 187.5576,32.77196 C188.1053,32.04739 188.2953,30.82841 187.7724,29.08063 C185.2784,30.04034 181.8842,29.28564 180.0319,27.35951 z" stroke="#000000" stroke-width="0.24" fill-opacity="0" />
  <path d="M136.1511,150.1311 C133.4298,152.963 132.2242,155.8432 132.5345,158.7718" stroke="#000000" stroke-width="0.24" fill-opacity="0" />
  <path d="M109.954,182.9037 C98.56987,179.2546 88.51402,181.0352 79.78645,188.2456 C79.45198,186.809 79.25789,185.3829 79.18659,183.9952 C88.13943,176.6008 98.30791,174.7282 109.692,178.3774 L109.6872,178.9135 C109.6872,180.2155 109.7723,181.5501 109.954,182.9037 z" stroke="#000000" stroke-width="0.24" fill-opacity="0" />
  <path d="M148.2735,87.89779 C149.6497,86.12319 148.8443,82.633 146.8296,81.64093 C145.055,80.2647 141.5648,81.07013 140.5727,83.08482 C139.1965,84.85942 140.0019,88.3496 142.0166,89.34168 C143.7912,90.71791 147.2814,89.91248 148.2735,87.89779 z" stroke="#000000" stroke-width="0.24" fill-opacity="0" />
  <path d="M109.692,178.3774 C109.76,172.2835 111.9305,165.3934 116.5293,159.6555 L116.5435,159.6857 C114.8106,166.1843 115.2697,170.7601 116.6766,173.9807 C114.1065,174.182 111.7783,175.6476 109.692,178.3774 z" stroke="#000000" stroke-width="0.24" fill-opacity="0" />
  <path d="M57.41452,169.3223 C57.89089,170.1592 58.73668,170.7416 59.69804,171.0233 C61.89936,171.7205 65.04038,171.9055 67.1123,171.1229 C68.84952,170.4979 70.78114,170.1017 72.39875,169.9417 C72.68214,169.9137 72.90795,170.0709 73.09101,170.4072 C72.33214,170.6502 71.52067,171.3063 71.19692,171.9387 C70.83069,172.5672 70.88078,173.3024 71.31385,173.6548 C71.70689,174.0396 72.56841,174.1179 73.32474,173.8375 C74.06034,173.5728 75.30463,173.4498 76.66472,173.5921 C77.67154,173.7021 79.46104,173.202 81.5043,172.3289 C79.86613,175.7938 79.14879,179.4216 79.15467,182.7543 L79.18659,183.9952 C73.15167,176.6884 66.40839,174.1752 58.95673,176.4555 C56.44176,177.2251 54.20964,176.8919 52.26036,175.4559 C53.56764,173.1967 55.32647,171.0887 57.41452,169.3223 z" stroke="#000000" stroke-width="0.24" fill-opacity="0" />
  <path d="M66.45253,164.4111 C66.4525,157.2046 55.81237,154.8871 56.06987,151.8237 C57.06488,151.9908 58.07114,152.2392 59.0655,152.5744 C61.02851,155.1134 68.85188,157.6633 69.00734,163.7632 z" stroke="#000000" stroke-width="0.24" fill-opacity="0" />
  <path d="M57.41452,169.3223 C57.89089,170.1592 58.73668,170.7416 59.69804,171.0233 C61.89936,171.7205 65.04038,171.9055 67.1123,171.1229 C68.84952,170.4979 70.78114,170.1017 72.39875,169.9417 C72.68214,169.9137 72.90795,170.0709 73.09101,170.4072 C72.33214,170.6502 71.52067,171.3063 71.19692,171.9387 C70.83069,172.5672 70.88078,173.3024 71.31385,173.6548 C71.70689,174.0396 72.56841,174.1179 73.32474,173.8375 C74.06034,173.5728 75.30463,173.4498 76.66472,173.5921 C77.67154,173.7021 79.46104,173.202 81.5043,172.3289 C82.58608,170.029 84.06685,167.8121 85.88738,165.8381 C82.12035,164.0205 78.03794,163.2221 74.34375,163.2314 C68.77985,163.1719 62.2522,165.1555 57.41452,169.3223 z" stroke="#000000" stroke-width="0.24" fill-opacity="0" />
  <path d="M186.4239,64.35862 C186.8418,63.84239 187.3826,63.40191 187.8773,63.42812 C188.3719,63.45432 188.8203,63.94722 188.8681,64.47871 C188.9159,65.01021 188.563,65.58029 188.0661,66.01571 C187.5692,66.45113 186.9282,66.75188 186.4626,66.73662 C185.9969,66.72135 185.7066,66.39008 185.7089,65.92844 C185.7112,65.46682 186.006,64.87485 186.4239,64.35862 z" stroke="#000000" stroke-width="0.24" fill-opacity="0" />
  <path d="M50.81374,178.4355 C44.62822,175.982 42.41502,172.2159 41.05314,168.1958 C39.69127,164.1756 39.18072,159.9015 37.58217,159.0662 C38.15706,158.272 38.80999,157.5165 39.52884,156.8175 C44.16315,158.9202 40.92372,171.2752 52.26036,175.4559 C51.69645,176.4277 51.21389,177.4265 50.81374,178.4355 z" stroke="#000000" stroke-width="0.24" fill-opacity="0" />
  <path d="M185.6042,20.97213 C184.7389,19.85631 185.2453,17.66177 186.5121,17.03798 C187.6279,16.17265 189.8225,16.67908 190.4463,17.94586 C191.3116,19.06168 190.8052,21.25622 189.5384,21.88001 C188.4226,22.74534 186.228,22.23891 185.6042,20.97213 z" stroke="#000000" stroke-width="0.24" fill-opacity="0" />
  <path d="M164.206,134.5316 C163.0801,133.9436 161.6754,133.7562 160.4347,134.0284 L160.4419,133.9974 L160.566,133.3235 L160.6114,132.5118 L160.5943,132.2361 L160.5594,131.9738 L160.4512,131.5151 L160.3458,131.1929 L160.3641,130.6516 C160.497,130.4654 160.8614,130.5661 161.3004,130.7126 L162.1998,131.0436 L163.0548,131.4318 L163.8309,131.8735 L164.5297,132.3754 L165.1544,132.9454 L165.5713,133.4181 C165.0641,133.7141 164.598,134.0943 164.206,134.5316 z" stroke="#000000" stroke-width="0.24" fill-opacity="0" />
  <path d="M41.78646,145.4545 C40.96807,146.9764 39.41089,147.6827 37.11491,147.5735 L36.38916,148.1038 C36.80857,150.9924 36.4754,153.3369 36.3213,154.9505 C36.16721,156.5641 36.19218,157.4466 36.45292,158.2758 C36.60502,158.7595 36.83735,159.2251 37.19418,159.6255 C40.11862,155.0404 45.80013,152.0285 50.89144,151.6431 C50.7201,150.9892 50.28102,150.3999 49.47026,149.8572 C47.83897,148.7654 44.70297,147.8623 43.2138,145.2375 z" stroke="#000000" stroke-width="0.24" fill-opacity="0" />
  <path d="M179.638,31.17554 C178.5657,33.41757 176.0414,34.33987 174.7641,35.33073 C173.4868,36.32158 173.4566,37.38098 173.986,38.67715 C174.5154,39.97332 175.6045,41.50625 176.9666,42.47485 C178.3286,43.44344 179.9637,43.84769 181.3564,43.92875 C182.749,44.0098 183.8992,43.76765 184.656,43.31362 C185.4127,42.85959 185.7759,42.19368 185.9424,41.49751 C186.1089,40.80133 186.0786,40.07488 185.8591,38.7582 C185.6397,37.44152 185.2311,35.5346 185.4094,33.13753 L184.7827,32.74367 C182.9028,32.9655 181.5829,32.47483 180.823,31.27167 z" stroke="#000000" stroke-width="0.24" fill-opacity="0" />
  <path d="M127.0455,40.89686 C128.3476,43.61937 131.4129,44.73932 132.9639,45.94252 C134.5149,47.14571 134.5516,48.43215 133.9088,50.0061 C133.2659,51.58004 131.9435,53.44149 130.2895,54.61766 C128.6355,55.79383 126.65,56.28471 124.9589,56.38314 C123.2678,56.48156 121.8711,56.18752 120.9522,55.63619 C120.0333,55.08486 119.5922,54.27624 119.3901,53.43087 C119.1879,52.5855 119.2247,51.70337 119.4912,50.10452 C119.7576,48.50566 120.2538,46.19008 120.0373,43.27931 L120.7983,42.80104 C123.0811,43.07041 124.6838,42.47459 125.6065,41.01359 z" stroke="#000000" stroke-width="0.24" fill-opacity="0" />
  <path d="M136.1511,150.1311 C133.4298,152.963 132.2242,155.8432 132.5345,158.7718 L131.9635,158.2968 C129.9619,156.5995 129.8178,156.0279 129.6934,153.8445 L129.6539,153.1036 C130.342,151.2529 131.2261,149.6895 132.3064,148.4132 C133.2287,149.1938 134.5102,149.7664 136.1511,150.1311 z" stroke="#000000" stroke-width="0.24" fill-opacity="0" />
  <path d="M117.7745,147.2742 C116.9981,144.7603 116.651,142.2562 116.6519,139.8771 C116.5953,134.0025 118.9974,126.9845 124.2286,120.9993 L125.7287,121.5616 L126.1251,121.7272 C123.0664,125.7347 123.2949,129.446 126.8106,132.8612 C125.1532,137.4818 126.459,140.7212 130.728,142.5795 C130.2022,145.133 130.7283,147.0775 132.3064,148.4132 C131.2261,149.6895 130.342,151.2529 129.6539,153.1036 C129.4759,149.6265 129.1985,143.5474 127.0019,141.8787 C124.6795,140.1146 120.2118,143.2801 117.7745,147.2742 z" stroke="#000000" stroke-width="0.24" fill-opacity="0" />
  <path d="M165.8549,143.4247 C167.6292,144.4175 170.2803,144.1939 171.8634,142.918 C173.5378,141.7646 174.5081,139.2873 174.0626,137.3035 C173.7673,135.2919 171.9734,133.3271 169.9968,132.8506 C168.0616,132.227 165.5066,132.9687 164.206,134.5316 C165.7257,135.2684 166.9466,136.9056 167.2195,138.5723 C167.5623,140.226 167.0094,142.192 165.8549,143.4247 z" stroke="#000000" stroke-width="0.24" fill-opacity="0" />
  <path d="M182.8398,14.73107 C179.1863,15.58676 176.5598,20.96474 178.1313,24.37218 C178.987,28.02569 184.365,30.65214 187.7724,29.08063 C191.4259,28.22494 194.0524,22.84696 192.4809,19.43952 C191.6252,15.78601 186.2472,13.15956 182.8398,14.73107 z" stroke="#000000" stroke-width="0.24" fill-opacity="0" />
  <path d="M86.61473,165.0788 L86.9017,165.174 C89.10302,165.8712 92.24403,166.0562 94.31596,165.2736 C96.05317,164.6486 97.98479,164.2524 99.6024,164.0924 C99.8858,164.0644 100.1116,164.2216 100.2947,164.5579 C99.53579,164.8009 98.72432,165.457 98.40057,166.0894 C98.03434,166.7179 98.08443,167.4531 98.5175,167.8055 C98.91055,168.1903 99.77206,168.2685 100.5284,167.9882 C101.264,167.7235 102.5083,167.6005 103.8684,167.7428 C105.122,167.8872 107.6141,167.0515 110.2696,165.7725 C111.6734,165.1057 113.0889,164.1218 114.2149,162.9711 C111.1715,167.9435 109.7646,173.4131 109.692,178.3774 C98.30791,174.7282 88.13943,176.6008 79.18659,183.9952 L79.15467,182.7543 C79.08107,176.9417 81.51356,170.1174 86.61473,165.0788 z" stroke="#000000" stroke-width="0.24" fill-opacity="0" />
  <path d="M145.2273,154.7215 C148.5388,158.6014 152.0749,159.4202 155.8357,157.1779 C159.8987,159.673 163.5122,159.5644 166.6763,156.8524 C172.1005,157.6057 175.2646,156.1241 176.1686,152.4076 C180.9577,152.8016 183.5452,150.6534 183.9312,145.9627 C185.5978,144.8307 186.6118,143.3043 186.9733,141.3835 C186.7551,148.1756 182.7181,156.0154 175.967,161.3591 C169.2159,166.7029 159.7507,169.5507 151.8355,169.3967 C147.4473,169.4022 142.6812,168.688 138.1082,167.0571 C139.5468,166.8976 139.9225,166.0254 139.0689,164.7204 C137.934,162.9856 134.6266,160.486 132.5345,158.7718 C132.2242,155.8432 133.4298,152.963 136.1511,150.1311 C137.2056,154.6125 140.231,156.1427 145.2273,154.7215 z" stroke="#000000" stroke-width="0.24" fill-opacity="0" />
  <path d="M149.2241,48.70418 C151.4848,47.63163 153.7994,46.71348 156.1343,45.97639 C156.2723,48.85834 157.2384,52.18425 158.748,53.65051 C160.0262,54.9466 161.1423,56.64896 161.9014,58.22495 C162.0345,58.50101 161.9571,58.87803 161.681,59.36641 C161.1533,58.77397 160.1843,58.48711 159.4192,58.69685 C158.6424,58.8581 157.9099,59.55434 157.7095,60.32196 C157.4612,61.07547 157.6986,62.05779 158.2635,62.61481 C158.8047,63.16362 159.3886,64.37591 159.7442,65.94307 C160.0583,67.39919 161.8298,69.31168 164.1141,71.00978 C166.3568,72.78532 169.8711,73.3185 172.5395,72.28806 C175.2583,71.39904 177.6436,68.76383 178.2583,65.97021 C178.9495,63.21041 179.1994,60.7446 178.6782,59.62699 C178.0431,58.25065 177.8932,56.80632 178.1377,55.98184 C178.4066,55.1313 178.0137,53.99337 177.2773,53.48991 C176.5895,52.9219 175.3872,52.85972 174.6445,53.35375 C173.8601,53.77856 173.3519,54.86989 173.5316,55.74363 C173.0693,55.51289 172.8241,55.27 172.7996,55.00139 C172.6296,53.11043 172.5508,50.69727 172.6597,48.63594 C172.7334,47.38492 172.2454,45.68179 171.4149,44.01907 L172.9716,44.18485 C174.9553,44.42233 176.9431,44.90572 178.935,45.63502 C185.7508,48.13055 189.8022,55.69065 191.9725,62.44891 L193.3845,67.91754 L193.4698,69.85531 C190.8231,70.21325 189.8098,75.27523 189.5766,79.18159 C189.3362,83.20799 189.9246,86.00665 191.2837,88.44183 C191.9568,89.64793 192.819,90.76488 193.8487,91.1545 L193.8153,92.1295 C190.3307,91.22165 186.0996,91.47012 182.6649,92.39336 C178.9493,93.2999 174.7734,95.51375 172.2099,98.23111 C169.6464,100.9485 168.6953,104.1693 169.3987,106.4558 C169.9053,108.7936 172.3121,111.1359 175.878,112.2494 C179.4439,113.3629 184.169,113.2477 187.8523,112.2182 C189.0739,111.8988 190.3331,111.474 191.5714,110.9375 C182.1144,120.57 164.1317,125.947 147.2816,125.6525 C130.4314,125.358 114.7138,119.3922 112.712,107.9394 C112.7253,101.5217 114.7559,97.27174 118.8072,94.69731 C120.1117,76.82599 128.7913,60.70469 144.2538,51.36732 C145.9145,50.37603 147.5713,49.48832 149.2241,48.70418 z" stroke="#000000" stroke-width="0.24" fill-opacity="0" />
  <path d="M123.0146,204.4149 C115.5253,198.9979 110.8736,190.5967 109.954,182.9037 C98.56987,179.2546 88.51402,181.0352 79.78645,188.2456 C80.97073,193.7932 84.7391,199.4788 89.92016,203.2572 C95.10121,207.0356 101.695,208.9069 107.3283,208.8306 C112.3829,208.856 118.1134,207.4806 123.0146,204.4149 z" stroke="#000000" stroke-width="0.24" fill-opacity="0" />
  <path d="M123.1576,20.92826 C127.594,21.96732 130.7834,28.49783 128.8751,32.6355 C127.836,37.07198 121.3055,40.26129 117.1678,38.35299 C112.7313,37.31393 109.542,30.78342 111.4503,26.64575 C112.4894,22.20928 119.0199,19.01996 123.1576,20.92826 z" stroke="#000000" stroke-width="0.24" fill-opacity="0" />
  <path d="M70.30928,163.5339 C68.83057,158.6939 64.28207,154.2168 59.0655,152.5744 C61.02851,155.1134 68.85188,157.6633 69.00734,163.7632 z" stroke="#000000" stroke-width="0.24" fill-opacity="0" />
  <path d="M119.8007,28.5068 C120.8515,27.15186 120.2365,24.48702 118.6982,23.72955 C117.3433,22.67877 114.6785,23.29373 113.921,24.832 C112.8702,26.18694 113.4852,28.85177 115.0234,29.60924 C116.3784,30.66003 119.0432,30.04506 119.8007,28.5068 z" stroke="#000000" stroke-width="0.24" fill-opacity="0" />
  <path d="M169.3987,106.4558 C169.9053,108.7936 172.3121,111.1359 175.878,112.2494 C179.4439,113.3629 184.169,113.2477 187.8523,112.2182 C191.5678,111.3117 195.7437,109.0978 198.3073,106.3805 C200.8708,103.6631 201.8218,100.4423 201.1185,98.15585 C200.6118,95.81797 198.2051,93.47571 194.6392,92.36219 C191.0733,91.24867 186.3482,91.36389 182.6649,92.39336 C178.9493,93.2999 174.7734,95.51375 172.2099,98.23111 C169.6464,100.9485 168.6953,104.1693 169.3987,106.4558 z" stroke="#000000" stroke-width="0.24" fill-opacity="0" />
  <path d="M86.61473,165.0788 L86.9017,165.174 C89.10302,165.8712 92.24403,166.0562 94.31596,165.2736 C96.05317,164.6486 97.98479,164.2524 99.6024,164.0924 C99.8858,164.0644 100.1116,164.2216 100.2947,164.5579 C99.53579,164.8009 98.72432,165.457 98.40057,166.0894 C98.03434,166.7179 98.08443,167.4531 98.5175,167.8055 C98.91055,168.1903 99.77206,168.2685 100.5284,167.9882 C101.264,167.7235 102.5083,167.6005 103.8684,167.7428 C105.122,167.8872 107.6141,167.0515 110.2696,165.7725 C111.6734,165.1057 113.0889,164.1218 114.2149,162.9711 C114.9078,161.8331 115.6811,160.7235 116.5293,159.6555 L115.9576,158.0625 C112.7791,157.1025 109.8681,156.6765 107.3283,156.678 C100.406,156.5729 92.13825,159.4059 86.61473,165.0788 z" stroke="#000000" stroke-width="0.24" fill-opacity="0" />
  <path d="M118.1785,43.45632 C95.74154,59.25203 94.83481,84.09175 98.99194,98.46743 C102.82,111.7052 110.942,116.0699 125.7287,121.5616 C118.7575,118.6031 113.7806,114.053 112.712,107.9394 C112.7253,101.5217 114.7559,97.27174 118.8072,94.69731 C120.1117,76.82599 128.7913,60.70469 144.2538,51.36732 C145.9145,50.37603 147.5713,49.48832 149.2241,48.70418 C151.4848,47.63163 153.7994,46.71348 156.1343,45.97639 L156.1192,45.69863 C156.0812,44.92017 156.1674,44.09206 156.4027,43.27984 L155.9665,43.22268 C152.95,42.77689 150.1734,41.91555 148.861,40.79577 C147.435,39.59846 146.0926,38.81076 145.2704,38.57833 C144.4237,38.34941 143.5187,37.60541 143.1578,36.84173 C142.7496,36.08728 142.806,35.15604 143.2895,34.6681 C143.7283,34.14341 144.6897,33.95722 145.5335,34.2335 C145.3889,33.68689 145.172,33.32577 144.8663,33.14643 L144.0303,32.67618 L143.9881,32.68279 C137.9577,33.62799 132.4675,35.28382 127.5177,37.65026 C128.595,39.46997 128.4376,40.55217 127.0455,40.89686 C128.3476,43.61937 131.4129,44.73932 132.9639,45.94252 C134.5149,47.14571 134.5516,48.43215 133.9088,50.0061 C133.2659,51.58004 131.9435,53.44149 130.2895,54.61766 C128.6355,55.79383 126.65,56.28471 124.9589,56.38314 C123.2678,56.48156 121.8711,56.18752 120.9522,55.63619 C120.0333,55.08486 119.5922,54.27624 119.3901,53.43087 C119.1879,52.5855 119.2247,51.70337 119.4912,50.10452 C119.7576,48.50566 120.2538,46.19008 120.0373,43.27931 C119.2866,43.65854 118.6704,43.67619 118.1785,43.45632 z" stroke="#000000" stroke-width="0.24" fill-opacity="0" />
  <path d="M165.6825,143.6083 C167.852,141.8032 167.8085,137.3019 165.6047,135.5389 C163.7995,133.3694 159.2982,133.4129 157.5352,135.6167 C155.3658,137.4219 155.4092,141.9232 157.6131,143.6862 C159.4183,145.8556 163.9196,145.8122 165.6825,143.6083 z" stroke="#000000" stroke-width="0.24" fill-opacity="0" />
  <path d="M160.875,139.0457 C161.6413,138.4081 161.6259,136.8182 160.8475,136.1954 C160.2099,135.4292 158.62,135.4445 157.9972,136.2229 C157.231,136.8605 157.2463,138.4505 158.0247,139.0732 C158.6624,139.8395 160.2523,139.8241 160.875,139.0457 z" stroke="#000000" stroke-width="0.24" fill-opacity="0" />
  <path d="M107.3283,156.678 C99.59467,128.3269 91.31299,125.3153 86.33562,120.1288 C81.35825,114.9423 79.68518,107.5808 78.84864,103.2332 C78.01211,98.88564 78.01211,97.55193 77.25635,97.06291 C76.50058,96.57388 74.98904,96.92954 73.87762,98.75227 C72.7662,100.575 72.0549,103.8648 71.47696,107.777 C70.89902,111.6892 70.45445,116.2238 70.58782,119.6025 C70.72119,122.9812 71.4325,125.2041 70.0988,125.6931 C68.76509,126.1821 65.38638,124.9373 64.31941,120.4472 C63.25245,115.9571 64.49724,108.2216 62.71897,102.0421 C60.9407,95.86258 56.13936,91.23907 51.07129,89.28297 C46.00321,87.32687 40.66839,88.03818 37.60087,87.63807 C34.53335,87.23795 33.73313,85.72643 33.11073,83.85924 C32.48834,81.99205 32.04377,79.76921 30.97681,79.23573 C29.90984,78.70225 28.22049,79.85812 27.24244,82.70336 C26.26439,85.5486 25.99764,90.08319 27.1106,96.26323 C28.22355,102.4433 30.7162,110.2688 29.92464,114.8379 C29.13307,119.407 25.05729,120.7198 21.05465,118.8965 C17.052,117.0732 13.12249,112.1139 10.04631,113.6798 C6.97013,115.2457 4.74729,123.3369 4.480549,130.45 C4.213808,137.5631 5.903167,143.6981 9.015143,147.966 C12.12712,152.2338 16.66171,154.6345 19.37358,158.9468 C22.08545,163.2591 22.97458,169.483 22.79675,173.2619 C22.61893,177.0407 21.37414,178.3744 20.12934,178.0188 C18.88456,177.6631 17.63976,175.6181 15.68367,174.4178 C13.72757,173.2174 11.06016,172.8618 9.104057,173.8843 C7.147958,174.9068 5.903167,177.3074 6.747847,178.8634 C7.592526,180.4194 10.52668,181.1307 12.79397,184.5095 C15.06127,187.8882 16.66171,193.9343 19.50695,199.8915 C22.35219,205.8487 26.44221,211.717 34.31107,217.1852 C42.17992,222.6534 53.82761,227.7215 68.63172,227.4992 C83.43584,227.2769 101.3964,221.7643 118.8235,220.964 C136.2505,220.1638 153.1441,224.076 166.8813,225.143 C180.6184,226.2099 191.1991,224.4317 199.0235,214.34 C206.8479,204.2483 211.916,185.8432 231.1214,178.1077 C236.9547,175.7581 236.9722,172.7984 236.0029,170.8295 C235.0336,168.8607 233.0775,167.8826 231.3834,167.4831 C229.6894,167.0837 228.2574,167.2628 225.4566,169.13 C222.6559,170.9972 218.4863,174.5524 212.02,179.7869 C205.5538,185.0215 196.7908,191.9353 181.1566,183.6114" stroke="#000000" stroke-width="0.24" fill-opacity="0" />
  <path d="M158.9429,129.0776 C156.4371,127.617 154.1178,128.0887 152.807,129.141 C151.4962,130.1932 151.1937,131.8259 151.0869,133.2532 L150.8995,136.8534 C150.7301,137.8045 150.3026,138.4847 150.2169,138.8993 C150.1312,139.3139 150.3873,139.4629 150.86,139.4689 C151.3327,139.4749 152.0218,139.338 152.776,138.8801 C153.5302,138.4222 154.3494,137.6435 154.8345,136.5193 C155.3195,135.3951 155.4703,133.9255 156.1573,133.1696 C156.8443,132.4136 158.0675,132.3714 158.8539,130.8119 C159.3404,129.9047 159.3701,129.3267 158.9429,129.0776 z" stroke="#000000" stroke-width="0.24" fill-opacity="0" />
  <path d="M164.4101,37.95932 C166.5119,38.17685 168.4904,39.43624 169.5754,40.99549 C170.248,41.92785 170.8923,42.96265 171.4149,44.01907 L172.9716,44.18485 C174.9553,44.42233 176.9431,44.90572 178.935,45.63502 C185.7508,48.13055 189.8022,55.69065 191.9725,62.44891 L193.3845,67.91754 C192.9056,57.03838 189.7496,48.97018 184.7517,43.2537 L184.656,43.31362 C183.8992,43.76765 182.749,44.0098 181.3564,43.92875 C179.9637,43.84769 178.3286,43.44344 176.9666,42.47485 C175.6045,41.50625 174.5154,39.97332 173.986,38.67715 C173.5055,37.50079 173.486,36.51945 174.4413,35.60738 L172.7622,34.90553 L169.0002,33.54719 L163.1841,32.44196 L163.2258,32.51697 C164.1923,34.23335 164.6626,36.2325 164.4101,37.95932 z" stroke="#000000" stroke-width="0.24" fill-opacity="0" />
  <path d="M35.12085,133.384 C36.07438,131.9589 35.2747,129.3436 33.68727,128.6954 C32.26221,127.7419 29.64686,128.5416 28.99874,130.129 C28.0452,131.5541 28.84488,134.1694 30.43231,134.8175 C31.85737,135.7711 34.47272,134.9714 35.12085,133.384 z" stroke="#000000" stroke-width="0.24" fill-opacity="0" />
  <path d="M193.3845,67.91757 L193.4698,69.85533" stroke="#000000" stroke-width="0.24" fill-opacity="0" />
  <path d="M117.6493,147.4831 C115.2427,151.5747 115.0127,156.4501 116.5435,159.6857 C113.031,172.8581 118.5243,178.1304 122.6625,180.2309 C126.8008,182.3314 129.584,181.2601 132.2603,179.1368 C134.9365,177.0134 137.5059,173.8381 135.477,166.8006 C138.9444,167.606 140.3137,166.6234 139.0689,164.7204 C137.824,162.8175 133.965,159.9942 131.9635,158.2968 C129.9619,156.5995 129.8178,156.0279 129.6934,153.8445 C129.5068,150.5708 129.3646,143.6735 127.0019,141.8787 C124.6391,140.0839 120.0559,143.3916 117.6493,147.4831 z" stroke="#000000" stroke-width="0.24" fill-opacity="0" />
  <path d="M186.8876,137.3266 L187.4338,136.0829 L189.147,137.0853 C193.0829,139.7388 195.3931,144.0383 195.4075,147.6177 C204.2577,157.987 201.5755,165.113 198.7479,168.7929 C195.9202,172.4727 192.9471,172.7066 189.6168,171.9452 C186.2864,171.1837 182.5988,169.427 181.3941,162.2027 C178.6132,164.4248 176.9539,164.1288 177.2563,161.8751 L177.8459,159.7557 C183.6291,154.4999 186.6655,147.547 186.9733,141.3835 C187.1989,140.1848 187.1703,138.8325 186.8876,137.3266 z" stroke="#000000" stroke-width="0.24" fill-opacity="0" />
</svg>