<svg width="96" height="96" xmlns="http://www.w3.org/2000/svg" xmlns:xlink="http://www.w3.org/1999/xlink" xml:space="preserve" overflow="hidden"><defs><clipPath id="clip0"><rect x="242" y="381" width="96" height="96"/></clipPath></defs><g clip-path="url(#clip0)" transform="translate(-242 -381)"><path d="M331.72 396.44C330.839 395.775 329.586 395.95 328.92 396.83L322.23 405.66C321.131 405.337 319.981 405.221 318.84 405.32L312.46 396.89C311.822 395.988 310.574 395.774 309.672 396.412 308.77 397.05 308.556 398.298 309.194 399.2 309.218 399.234 309.244 399.267 309.27 399.3L314.81 406.61C313.508 407.397 312.417 408.488 311.63 409.79 310.527 408.945 309.113 408.617 307.75 408.89 306.105 409.42 304.826 410.725 304.33 412.38 303.146 410.993 301.337 410.304 299.53 410.55 298.648 410.757 297.854 411.237 297.26 411.92 295.41 409.08 292.85 407.49 290.54 408.09 288.937 408.614 287.691 409.887 287.2 411.5 285.2 409.29 282.65 408.18 280.52 408.84 278.22 409.55 276.99 412.13 277.11 415.33 274.47 413.46 271.66 412.93 269.76 414.24 267.86 415.55 267.35 418.47 268.23 421.67 265.38 420.38 262.61 420.38 261.01 421.96 259.6 423.36 259.4 425.67 260.22 428.16 258.528 427.685 256.71 428.091 255.38 429.24 253.83 430.77 253.73 433.4 254.86 436.16 253.37 437.16 252.73 439.16 252.86 441.45 252.446 441.433 252.033 441.474 251.63 441.57 248.53 442.33 247.87 446.47 250.17 450.83 252.31 454.89 256.25 457.69 259.29 457.44L262.53 460.08C263.38 460.787 264.643 460.671 265.35 459.82 266.057 458.969 265.94 457.707 265.09 457L262.52 454.91C262.617 454.63 262.69 454.342 262.74 454.05 263.803 454.32 264.927 454.225 265.93 453.78L267.56 455.1C268.416 455.799 269.676 455.671 270.375 454.815 271.074 453.959 270.946 452.699 270.09 452L268.28 450.53C268.599 448.748 268.444 446.913 267.83 445.21 268.456 445.094 269.049 444.845 269.57 444.48L271.57 446.1C272.391 446.839 273.656 446.771 274.394 445.95 275.133 445.129 275.066 443.864 274.244 443.125 274.195 443.081 274.143 443.039 274.09 443L271.3 440.71C271.289 439.744 271.127 438.786 270.82 437.87 271.961 438.133 273.153 438.071 274.26 437.69L275.48 439.38C275.855 439.901 276.458 440.209 277.1 440.21 277.52 440.209 277.93 440.076 278.27 439.83 279.172 439.193 279.388 437.945 278.751 437.043 278.741 437.028 278.73 437.014 278.72 437L276.84 434.4C276.986 433.468 276.949 432.517 276.73 431.6 277.707 431.988 278.764 432.136 279.81 432.03L281.48 434.34C281.855 434.861 282.458 435.169 283.1 435.17 283.52 435.169 283.93 435.036 284.27 434.79 285.164 434.143 285.365 432.895 284.72 432L283 429.68C283.451 428.634 283.639 427.495 283.55 426.36 284.012 426.587 284.499 426.762 285 426.88L286.32 430.4C286.707 431.438 287.862 431.967 288.9 431.58 289.938 431.193 290.467 430.038 290.08 429L289 426C289.252 425.781 289.48 425.537 289.68 425.27 290.535 426.449 291.678 427.389 293 428L293.16 430.06C293.244 431.102 294.115 431.903 295.16 431.9L295.32 431.9C296.421 431.815 297.245 430.853 297.16 429.752 297.16 429.751 297.16 429.751 297.16 429.75L297 427.7C297.218 427.548 297.425 427.381 297.62 427.2 298.621 429.015 300.3 430.36 302.29 430.94L302.94 433.33C303.301 434.374 304.44 434.928 305.484 434.567 306.412 434.246 306.97 433.298 306.8 432.33L306.1 429.74C306.775 429.019 307.289 428.164 307.61 427.23 308.568 428.277 309.843 428.98 311.24 429.23L311.63 431.23C311.815 432.184 312.658 432.868 313.63 432.85 313.76 432.86 313.89 432.86 314.02 432.85 315.104 432.639 315.812 431.589 315.601 430.505 315.601 430.503 315.6 430.501 315.6 430.5L315 427.66C315.95 426.433 316.548 424.971 316.73 423.43 321.611 425.028 326.864 422.366 328.462 417.485 329.301 414.923 328.986 412.122 327.6 409.81 327.113 408.983 326.495 408.24 325.77 407.61L332.11 399.24C332.775 398.359 332.6 397.106 331.72 396.44Z"/></g></svg>